<svg id="Capa_1" enable-background="new 0 0 512 512" height="512" fill="#B24545" viewBox="0 0 512 512" width="512" xmlns="http://www.w3.org/2000/svg"><g><g><g><g><path d="m429.635 125.288h-263.569c-4.142 0-7.5-3.358-7.5-7.5s3.358-7.5 7.5-7.5h263.569c4.142 0 7.5 3.358 7.5 7.5s-3.358 7.5-7.5 7.5z"/></g><g><path d="m429.635 204.85h-347.27c-4.142 0-7.5-3.358-7.5-7.5s3.358-7.5 7.5-7.5h347.271c4.142 0 7.5 3.358 7.5 7.5s-3.359 7.5-7.501 7.5z"/></g><g><path d="m429.635 284.412h-347.27c-4.142 0-7.5-3.358-7.5-7.5s3.358-7.5 7.5-7.5h347.271c4.142 0 7.5 3.358 7.5 7.5s-3.359 7.5-7.501 7.5z"/></g></g></g><g><g><path d="m504.5 266.867c-4.142 0-7.5-3.358-7.5-7.5v-187.957c0-27.969-22.754-50.724-50.724-50.724h-380.552c-27.969 0-50.724 22.755-50.724 50.724v28.833c0 4.142-3.358 7.5-7.5 7.5s-7.5-3.358-7.5-7.5v-28.833c0-36.24 29.484-65.724 65.724-65.724h380.552c36.241 0 65.724 29.484 65.724 65.724v187.957c0 4.142-3.358 7.5-7.5 7.5z"/></g><g><path d="m76.351 505.018c-5.953-2.539-9.799-8.36-9.799-14.832v-80.904c0-.457-.372-.828-.828-.828-36.241 0-65.724-29.483-65.724-65.724v-207.397c0-4.142 3.358-7.5 7.5-7.5s7.5 3.358 7.5 7.5v207.397c0 27.969 22.754 50.724 50.724 50.724 8.728 0 15.828 7.101 15.828 15.828v80.904c0 1.006 1.176 1.509 1.902.812l93.978-90.132c4.983-4.779 11.529-7.411 18.434-7.411h250.411c27.969 0 50.724-22.754 50.724-50.724v-48.273c0-4.142 3.358-7.5 7.5-7.5s7.5 3.358 7.5 7.5v48.273c0 36.24-29.483 65.724-65.724 65.724h-250.412c-3.016 0-5.875 1.149-8.051 3.237l-93.977 90.132c-4.685 4.493-11.554 5.724-17.486 3.194z"/></g></g></g></svg>