<svg width="300" height="400" viewBox="0 0 166 168" fill="none" xmlns="http://www.w3.org/2000/svg">
<path d="M46.7083 78.2642C51.3748 78.3617 56.3722 79.5041 61.3517 81.6117C66.3312 83.7193 71.1728 86.7413 75.5385 90.4668C79.9041 94.1922 83.6888 98.5314 86.6281 103.181C89.5674 107.831 91.5907 112.68 92.5566 117.389L79.4497 114.98C78.8599 112.105 77.6245 109.144 75.8298 106.305C74.0351 103.466 71.7242 100.816 69.0586 98.5417C66.393 96.267 63.4367 94.4218 60.3963 93.1349C57.3559 91.848 54.3045 91.1505 51.4552 91.091L46.7083 78.2642Z" fill="#964B4B"/>
<path d="M117.419 87.1428C112.85 86.6133 107.987 85.1768 103.128 82.9214C98.2683 80.6659 93.5148 77.6388 89.1579 74.0253C84.801 70.4117 80.9323 66.2877 77.7883 61.9055C74.6444 57.5233 72.2913 52.975 70.8731 48.5388L83.2978 50.6157C84.2012 53.4415 85.7001 56.3387 87.7027 59.1301C89.7053 61.9215 92.1697 64.5484 94.9449 66.8501C97.7202 69.1519 100.748 71.0801 103.843 72.5168C106.939 73.9535 110.036 74.8685 112.947 75.2058L117.419 87.1428Z" fill="#942727" fill-opacity="0.79"/>
<path d="M80.1598 36.819C84.3478 40.6795 86.1491 46.9814 85.1879 54.4097C84.2266 61.838 80.577 69.8187 75.0007 76.6865C69.4244 83.5542 62.3522 88.7785 55.2599 91.269C48.1675 93.7595 41.603 93.3239 36.9362 90.0531L47.9291 75.7226C50.1382 77.2709 53.2456 77.4771 56.6028 76.2982C59.9601 75.1192 63.3078 72.6463 65.9475 69.3953C68.5871 66.1443 70.3147 62.3665 70.7697 58.8502C71.2247 55.3339 70.3721 52.3508 68.3896 50.5234L80.1598 36.819Z" fill="#942727"/>
<path d="M84.0473 128.81C81.7664 126.887 80.1015 124.253 79.1532 121.067C78.205 117.881 77.9931 114.21 78.5303 110.274C79.0676 106.338 80.3428 102.22 82.2789 98.1689C84.2151 94.1176 86.7719 90.2169 89.795 86.7027C92.8181 83.1884 96.2446 80.1336 99.8674 77.7228C103.49 75.312 107.234 73.5953 110.873 72.6764C114.512 71.7575 117.97 71.6555 121.039 72.3766C124.107 73.0977 126.723 74.6269 128.726 76.8717L116.579 90.1753C115.63 89.1127 114.392 88.3889 112.94 88.0475C111.487 87.7062 109.85 87.7545 108.128 88.1894C106.405 88.6244 104.633 89.437 102.918 90.5782C101.203 91.7194 99.5808 93.1655 98.1498 94.829C96.7188 96.4925 95.5085 98.3389 94.592 100.257C93.6755 102.175 93.0718 104.124 92.8175 105.987C92.5632 107.85 92.6635 109.588 93.1124 111.096C93.5613 112.604 94.3494 113.851 95.4291 114.761L84.0473 128.81Z" fill="#942727"/>
</svg>
