<svg width="183" height="64" viewBox="0 0 183 64" fill="none" xmlns="http://www.w3.org/2000/svg">
<g id="LoadingIcon-Rotates">
<g id="Logo">
<path id="Ellipse 1" d="M17.5462 27.759C19.2992 27.7949 21.1765 28.2146 23.047 28.9891C24.9175 29.7636 26.7363 30.874 28.3762 32.243C30.0162 33.612 31.4379 35.2064 32.5421 36.9151C33.6462 38.6238 34.4062 40.4055 34.7691 42.1359L29.8455 41.2507C29.6239 40.1942 29.1599 39.1063 28.4857 38.063C27.8115 37.0197 26.9434 36.0461 25.9421 35.2102C24.9407 34.3744 23.8302 33.6963 22.6881 33.2234C21.546 32.7506 20.3997 32.4942 19.3294 32.4724L17.5462 27.759Z" fill="#964B4B"/>
<path id="Ellipse 2" d="M44.1081 31.0216C42.3917 30.827 40.565 30.2992 38.7396 29.4704C36.9142 28.6416 35.1286 27.5292 33.492 26.2014C31.8553 24.8736 30.402 23.3582 29.221 21.7479C28.04 20.1376 27.156 18.4663 26.6233 16.8361L31.2906 17.5993C31.63 18.6377 32.193 19.7023 32.9453 20.728C33.6976 21.7537 34.6233 22.719 35.6658 23.5648C36.7084 24.4106 37.8458 25.1192 39.0085 25.6471C40.1712 26.175 41.3348 26.5112 42.4281 26.6352L44.1081 31.0216Z" fill="#942727" fill-opacity="0.79"/>
<path id="Ellipse 5" d="M30.1117 12.5297C31.6849 13.9483 32.3615 16.264 32.0004 18.9936C31.6393 21.7232 30.2684 24.6558 28.1737 27.1794C26.0789 29.703 23.4222 31.6227 20.758 32.5379C18.0938 33.4531 15.6278 33.293 13.8748 32.0911L18.0042 26.8252C18.8341 27.3941 20.0014 27.4699 21.2625 27.0367C22.5237 26.6035 23.7812 25.6948 24.7728 24.5002C25.7644 23.3056 26.4134 21.9174 26.5843 20.6253C26.7552 19.3332 26.4349 18.237 25.6902 17.5655L30.1117 12.5297Z" fill="#942727"/>
<path id="Ellipse 4" d="M31.5721 46.3325C30.7153 45.626 30.0899 44.6581 29.7337 43.4874C29.3775 42.3168 29.2978 40.9676 29.4997 39.5213C29.7015 38.0751 30.1805 36.5619 30.9078 35.0732C31.6351 33.5845 32.5956 32.1511 33.7312 30.8598C34.8668 29.5685 36.154 28.4459 37.5149 27.5601C38.8759 26.6742 40.2823 26.0434 41.6492 25.7057C43.0162 25.368 44.3153 25.3306 45.468 25.5955C46.6207 25.8605 47.603 26.4224 48.3558 27.2473L43.7925 32.1359C43.4361 31.7454 42.9711 31.4794 42.4255 31.354C41.8798 31.2285 41.2649 31.2463 40.6178 31.4061C39.9708 31.566 39.305 31.8646 38.6608 32.2839C38.0166 32.7033 37.4073 33.2346 36.8697 33.8459C36.3321 34.4572 35.8775 35.1357 35.5332 35.8404C35.1889 36.5451 34.9622 37.2614 34.8666 37.946C34.7711 38.6306 34.8088 39.2692 34.9774 39.8234C35.146 40.3775 35.4421 40.8357 35.8477 41.1701L31.5721 46.3325Z" fill="#942727"/>
</g>
<g id="Name">
<path id="CompanyName" d="M59.6816 19.1094C59.7181 19.0547 59.7637 19.0456 59.8184 19.082C59.8913 19.1185 59.946 19.1185 59.9824 19.082C60.11 19.1732 60.2194 19.2279 60.3105 19.2461C60.3652 19.319 60.4564 19.3737 60.584 19.4102C60.7298 19.5378 60.8118 19.6107 60.8301 19.6289C61.0124 19.8294 61.1491 19.957 61.2402 20.0117C61.3496 20.0664 61.4499 20.1211 61.541 20.1758C61.7415 20.2487 61.8509 20.3034 61.8691 20.3398C61.8874 20.3763 61.9238 20.4128 61.9785 20.4492L62.252 20.6953C62.3613 20.7682 62.4434 20.832 62.498 20.8867C62.571 20.9049 62.6439 20.9323 62.7168 20.9688C62.8079 20.987 62.8717 21.0143 62.9082 21.0508C62.9629 21.2513 62.9811 21.3789 62.9629 21.4336C62.9629 21.4883 62.9629 21.543 62.9629 21.5977C62.9082 21.6706 62.8717 21.7344 62.8535 21.7891C62.8535 21.8255 62.8353 21.862 62.7988 21.8984C62.7077 22.0443 62.6439 22.1354 62.6074 22.1719C62.4798 22.2812 62.3887 22.3542 62.334 22.3906C62.2975 22.4089 62.2611 22.4362 62.2246 22.4727C62.0605 22.6367 61.9603 22.7279 61.9238 22.7461C61.9056 22.7461 61.8874 22.7552 61.8691 22.7734C61.778 22.8464 61.7142 22.9284 61.6777 23.0195C61.6048 23.0195 61.5501 23.0469 61.5137 23.1016C61.4954 23.138 61.459 23.1654 61.4043 23.1836C61.2585 23.293 61.1764 23.3568 61.1582 23.375C61.1582 23.375 61.14 23.3932 61.1035 23.4297C60.9941 23.5208 60.9121 23.5938 60.8574 23.6484C60.821 23.6849 60.7845 23.7214 60.748 23.7578C60.6022 23.9219 60.5202 24.0221 60.502 24.0586C60.4837 24.0768 60.4564 24.1042 60.4199 24.1406C60.3105 24.3047 60.2467 24.3958 60.2285 24.4141C60.2103 24.4141 60.1921 24.4323 60.1738 24.4688C60.0645 24.6146 59.9824 24.7148 59.9277 24.7695C59.873 24.8242 59.8275 24.888 59.791 24.9609C59.6999 25.125 59.6452 25.2253 59.627 25.2617C59.6087 25.2799 59.6087 25.3073 59.627 25.3438C59.5723 25.4714 59.5176 25.5534 59.4629 25.5898C59.4264 25.6263 59.3991 25.6719 59.3809 25.7266C59.3991 25.8359 59.39 25.9362 59.3535 26.0273C59.3171 26.1185 59.2988 26.2096 59.2988 26.3008C59.2988 26.5013 59.3171 26.6198 59.3535 26.6562C59.39 26.875 59.4355 27.0391 59.4902 27.1484C59.5449 27.2396 59.5905 27.3398 59.627 27.4492C59.6634 27.5221 59.6908 27.6042 59.709 27.6953C59.7454 27.7682 59.7819 27.8411 59.8184 27.9141C59.8913 28.0964 59.946 28.2148 59.9824 28.2695C60.0189 28.306 60.0553 28.3516 60.0918 28.4062C60.2194 28.5521 60.2923 28.6341 60.3105 28.6523C60.347 28.6523 60.3743 28.6706 60.3926 28.707C60.429 28.8164 60.4564 28.8893 60.4746 28.9258C60.5111 28.944 60.5384 28.9714 60.5566 29.0078C60.6296 29.1172 60.6842 29.2174 60.7207 29.3086C60.7754 29.3815 60.8301 29.4544 60.8848 29.5273C60.9577 29.6732 60.9941 29.7643 60.9941 29.8008C61.0124 29.819 61.0397 29.8464 61.0762 29.8828C61.1673 30.0469 61.222 30.138 61.2402 30.1562C61.3678 30.3568 61.4316 30.457 61.4316 30.457C61.4499 30.4388 61.459 30.4479 61.459 30.4844C61.5137 30.7031 61.5501 30.8672 61.5684 30.9766C61.6048 31.0859 61.6413 31.1953 61.6777 31.3047C61.7142 31.3958 61.7415 31.4688 61.7598 31.5234C61.7962 31.5599 61.8327 31.5964 61.8691 31.6328L61.9785 31.9883C62.0697 32.1706 62.1243 32.2708 62.1426 32.2891C62.1608 32.3073 62.1699 32.3255 62.1699 32.3438C62.2064 32.5078 62.2246 32.6263 62.2246 32.6992C62.2246 32.7721 62.2428 32.8451 62.2793 32.918C62.2975 32.9909 62.3158 33.0638 62.334 33.1367C62.3522 33.1914 62.3613 33.2643 62.3613 33.3555C62.3613 33.5195 62.3704 33.6198 62.3887 33.6562C62.4069 33.6927 62.416 33.7292 62.416 33.7656C62.416 33.8203 62.4069 33.9023 62.3887 34.0117C62.3704 34.1029 62.3613 34.1849 62.3613 34.2578C62.3796 34.3672 62.3796 34.4401 62.3613 34.4766C62.3613 34.4948 62.3613 34.5221 62.3613 34.5586C62.3249 34.7773 62.2884 34.9141 62.252 34.9688C62.2337 35.0234 62.2246 35.0781 62.2246 35.1328C62.1152 35.3516 62.0514 35.4883 62.0332 35.543C62.0332 35.5794 62.015 35.6159 61.9785 35.6523C61.9238 35.7799 61.8874 35.862 61.8691 35.8984C61.8691 35.9349 61.8509 35.9714 61.8145 36.0078C61.778 36.099 61.7051 36.1992 61.5957 36.3086C61.5046 36.4909 61.4134 36.6003 61.3223 36.6367C61.3223 36.7096 61.304 36.7734 61.2676 36.8281C61.2311 36.8646 61.1947 36.9102 61.1582 36.9648C61.0853 37.0378 61.0488 37.0924 61.0488 37.1289C61.0488 37.1654 61.0397 37.2018 61.0215 37.2383C60.8574 37.4023 60.7572 37.5117 60.7207 37.5664C60.7025 37.6029 60.6569 37.6393 60.584 37.6758C60.4928 37.7669 60.4017 37.8763 60.3105 38.0039C60.2194 38.1133 60.1465 38.2409 60.0918 38.3867C59.9642 38.4596 59.8822 38.5326 59.8457 38.6055C59.7546 38.7513 59.6999 38.8333 59.6816 38.8516C59.6634 38.8516 59.6452 38.8698 59.627 38.9062C59.5723 38.9974 59.5267 39.0703 59.4902 39.125C59.472 39.1615 59.4538 39.1979 59.4355 39.2344C59.2533 39.3438 59.1621 39.4076 59.1621 39.4258C59.071 39.5169 59.0072 39.5716 58.9707 39.5898C58.9525 39.6081 58.9251 39.6263 58.8887 39.6445C58.7611 39.7539 58.6973 39.8177 58.6973 39.8359C58.6973 39.8542 58.6882 39.8724 58.6699 39.8906C58.5605 40.0729 58.4785 40.1823 58.4238 40.2188C58.3874 40.2734 58.3418 40.3281 58.2871 40.3828C58.1777 40.4375 58.1139 40.5195 58.0957 40.6289C57.9316 40.7565 57.8314 40.8294 57.7949 40.8477C57.7767 40.8659 57.722 40.8932 57.6309 40.9297C57.4303 40.9661 57.3118 40.9661 57.2754 40.9297C57.2572 40.8932 57.2025 40.8841 57.1113 40.9023C56.9473 40.7747 56.8561 40.7109 56.8379 40.7109C56.8379 40.7292 56.8288 40.7292 56.8105 40.7109C56.7741 40.6745 56.7376 40.6289 56.7012 40.5742C56.6829 40.5195 56.6556 40.474 56.6191 40.4375C56.4551 40.2917 56.3639 40.2096 56.3457 40.1914C56.3457 40.1732 56.3275 40.1732 56.291 40.1914C56.0905 40.0273 55.9355 39.8724 55.8262 39.7266C55.6986 39.6354 55.6165 39.5898 55.5801 39.5898C55.5436 39.5716 55.498 39.5534 55.4434 39.5352C55.334 39.3164 55.2611 39.1706 55.2246 39.0977C55.0423 38.9336 54.9421 38.8424 54.9238 38.8242C54.9238 38.7878 54.9056 38.7604 54.8691 38.7422L54.4863 38.3594C54.3587 38.1224 54.2585 37.9674 54.1855 37.8945C54.1855 37.7852 54.1582 37.7122 54.1035 37.6758C54.0488 37.6211 54.0124 37.5482 53.9941 37.457C53.9941 37.4023 54.0033 37.3477 54.0215 37.293C54.0579 37.2201 54.0944 37.1562 54.1309 37.1016C54.2038 36.9375 54.2676 36.8281 54.3223 36.7734C54.3952 36.7005 54.459 36.6458 54.5137 36.6094C54.6413 36.5182 54.7324 36.4271 54.7871 36.3359C55.0059 36.099 55.1517 35.9531 55.2246 35.8984C55.2611 35.8438 55.2884 35.7891 55.3066 35.7344C55.3431 35.6615 55.3978 35.6068 55.4707 35.5703C55.6348 35.388 55.7624 35.2513 55.8535 35.1602C55.9447 35.069 56.0358 34.9779 56.127 34.8867C56.2181 34.7773 56.3092 34.6589 56.4004 34.5312C56.5462 34.349 56.6283 34.2487 56.6465 34.2305C56.6829 34.194 56.7103 34.1576 56.7285 34.1211C56.8743 33.9206 56.9473 33.8021 56.9473 33.7656C56.9655 33.7109 56.9837 33.6654 57.002 33.6289C57.1478 33.4102 57.2389 33.237 57.2754 33.1094C57.3301 32.9818 57.3301 32.8359 57.2754 32.6719L57.248 32.3711C57.1569 32.207 57.1022 32.0977 57.084 32.043C57.0658 31.9701 57.0384 31.9062 57.002 31.8516C56.8743 31.6875 56.7832 31.5964 56.7285 31.5781C56.7103 31.487 56.6738 31.4232 56.6191 31.3867C56.5645 31.332 56.5189 31.2591 56.4824 31.168C56.4277 31.1133 56.3913 31.0586 56.373 31.0039C56.373 30.9492 56.3548 30.9036 56.3184 30.8672C56.209 30.7214 56.1361 30.612 56.0996 30.5391C56.0632 30.4661 56.0267 30.3932 55.9902 30.3203C55.9173 30.1927 55.8717 30.1289 55.8535 30.1289C55.8353 30.1107 55.8171 30.0833 55.7988 30.0469L55.5527 29.7734C55.5163 29.6823 55.4707 29.6003 55.416 29.5273C55.3796 29.4362 55.334 29.3451 55.2793 29.2539C55.2428 29.181 55.1973 29.1081 55.1426 29.0352C55.1061 28.9622 55.0697 28.8802 55.0332 28.7891C54.9603 28.6615 54.9238 28.5885 54.9238 28.5703C54.9238 28.5521 54.9147 28.5339 54.8965 28.5156C54.7689 28.3333 54.7051 28.2331 54.7051 28.2148L54.5137 27.8867C54.4408 27.7227 54.3952 27.6406 54.377 27.6406C54.377 27.6224 54.377 27.6042 54.377 27.5859C54.304 27.4948 54.2585 27.4401 54.2402 27.4219C54.222 27.3854 54.2038 27.349 54.1855 27.3125C54.1309 27.1302 54.1035 27.0208 54.1035 26.9844C54.0488 26.7656 54.0033 26.6289 53.9668 26.5742C53.9486 26.5195 53.9395 26.4557 53.9395 26.3828C53.9759 26.2005 54.0124 26.0365 54.0488 25.8906C54.0853 25.7266 54.1126 25.6354 54.1309 25.6172C54.1491 25.5807 54.1673 25.5443 54.1855 25.5078C54.222 25.3073 54.2311 25.1432 54.2129 25.0156C54.2129 24.8698 54.2311 24.7513 54.2676 24.6602C54.3587 24.4961 54.4316 24.3411 54.4863 24.1953C54.5775 23.9948 54.6322 23.8672 54.6504 23.8125C54.6686 23.7396 54.6868 23.6849 54.7051 23.6484C54.7415 23.5208 54.8053 23.4023 54.8965 23.293C55.0059 23.1471 55.0697 23.0651 55.0879 23.0469C55.1061 23.0104 55.1243 22.974 55.1426 22.9375C55.3249 22.7734 55.4434 22.6458 55.498 22.5547C55.5892 22.4271 55.6621 22.3359 55.7168 22.2812C55.7897 22.2266 55.8535 22.1536 55.9082 22.0625C55.9447 21.9896 55.972 21.9349 55.9902 21.8984C56.0267 21.862 56.0632 21.8255 56.0996 21.7891C56.2272 21.6979 56.3001 21.6341 56.3184 21.5977C56.3366 21.543 56.3639 21.4974 56.4004 21.4609C56.4551 21.4062 56.5098 21.3607 56.5645 21.3242C56.6374 21.2695 56.6921 21.2148 56.7285 21.1602C56.765 21.1237 56.7923 21.0872 56.8105 21.0508C56.847 21.0143 56.8835 20.9688 56.9199 20.9141C57.1569 20.7865 57.3027 20.6953 57.3574 20.6406C57.4121 20.5859 57.4759 20.5404 57.5488 20.5039C57.7311 20.3763 57.877 20.2578 57.9863 20.1484C58.1139 20.0391 58.1777 19.9844 58.1777 19.9844C58.196 19.9844 58.2142 19.9661 58.2324 19.9297C58.3053 19.875 58.3783 19.8203 58.4512 19.7656C58.5241 19.6927 58.6061 19.6198 58.6973 19.5469C58.8066 19.3828 58.8704 19.3008 58.8887 19.3008C58.9069 19.3008 58.916 19.2917 58.916 19.2734C59.1165 19.1094 59.2806 19.0182 59.4082 19C59.554 18.9818 59.6452 19.0182 59.6816 19.1094ZM74.2285 19.2734C74.3379 19.2734 74.4199 19.2826 74.4746 19.3008C74.5293 19.3008 74.5749 19.2826 74.6113 19.2461C74.7572 19.3008 74.9212 19.3281 75.1035 19.3281C75.2858 19.3281 75.4772 19.3281 75.6777 19.3281C75.8053 19.3828 75.8965 19.4193 75.9512 19.4375C76.0059 19.4375 76.0514 19.4375 76.0879 19.4375C76.2155 19.474 76.3066 19.4922 76.3613 19.4922C76.416 19.4922 76.4616 19.5104 76.498 19.5469C76.6074 19.6016 76.7441 19.6471 76.9082 19.6836C76.9993 19.7018 77.1087 19.7201 77.2363 19.7383C77.3639 19.7565 77.4733 19.7656 77.5645 19.7656C77.6191 19.8203 77.6829 19.8568 77.7559 19.875C77.8288 19.875 77.9017 19.8932 77.9746 19.9297C78.0111 19.9661 78.0566 19.9935 78.1113 20.0117C78.166 20.0299 78.2116 20.0573 78.248 20.0938C78.3392 20.0938 78.4212 20.1302 78.4941 20.2031C78.5671 20.2578 78.6309 20.3125 78.6855 20.3672C78.8678 20.4219 78.9954 20.4674 79.0684 20.5039C79.3053 20.5951 79.4421 20.6406 79.4785 20.6406C79.515 20.6406 79.5514 20.6497 79.5879 20.668C79.752 20.8138 79.834 20.8958 79.834 20.9141C79.8522 20.9141 79.8796 20.9323 79.916 20.9688C80.1165 21.0964 80.235 21.1784 80.2715 21.2148C80.3079 21.2331 80.3626 21.2331 80.4355 21.2148C80.5996 21.3424 80.6999 21.4062 80.7363 21.4062C80.7728 21.4062 80.8092 21.4154 80.8457 21.4336C80.9004 21.4883 80.946 21.5339 80.9824 21.5703C81.0189 21.6068 81.0553 21.6432 81.0918 21.6797C81.1829 21.7526 81.2467 21.8164 81.2832 21.8711C81.3197 21.9258 81.3561 21.9714 81.3926 22.0078C81.5202 22.0625 81.584 22.1081 81.584 22.1445C81.6022 22.1628 81.6296 22.1628 81.666 22.1445L81.8848 22.3633C82.0124 22.5638 82.0853 22.6641 82.1035 22.6641C82.1217 22.6641 82.14 22.6823 82.1582 22.7188C82.2493 22.8281 82.304 22.901 82.3223 22.9375C82.3587 22.974 82.3952 23.0104 82.4316 23.0469C82.5592 23.2292 82.6322 23.3203 82.6504 23.3203C82.6868 23.3203 82.7142 23.3294 82.7324 23.3477C82.86 23.4753 82.9329 23.5664 82.9512 23.6211C82.9694 23.6576 82.9785 23.7031 82.9785 23.7578C83.0332 23.8125 83.0879 23.8581 83.1426 23.8945C83.1973 23.9128 83.2428 23.9583 83.2793 24.0312C83.2975 24.1042 83.3158 24.1589 83.334 24.1953C83.3522 24.2318 83.3704 24.2773 83.3887 24.332C83.4798 24.4232 83.5345 24.487 83.5527 24.5234C83.571 24.5599 83.5983 24.5872 83.6348 24.6055C83.6712 24.7331 83.7168 24.8516 83.7715 24.9609C83.8444 25.0521 83.9082 25.1523 83.9629 25.2617C84.0358 25.4987 84.0905 25.6536 84.127 25.7266C84.1452 25.763 84.1543 25.8086 84.1543 25.8633C84.1725 25.918 84.1908 25.9727 84.209 26.0273C84.3184 26.1914 84.373 26.3099 84.373 26.3828C84.373 26.4557 84.3913 26.5378 84.4277 26.6289C84.4824 26.793 84.5189 26.9023 84.5371 26.957C84.5553 26.9935 84.5645 27.0299 84.5645 27.0664C84.6191 27.3398 84.6374 27.5312 84.6191 27.6406C84.6191 27.7318 84.6283 27.832 84.6465 27.9414C84.6829 28.1055 84.7012 28.2057 84.7012 28.2422C84.7194 28.2604 84.7376 28.2878 84.7559 28.3242C84.7741 28.5065 84.7832 28.5977 84.7832 28.5977C84.8014 28.5977 84.8105 28.6159 84.8105 28.6523C84.8288 28.7253 84.8379 28.8073 84.8379 28.8984C84.8561 28.9896 84.8835 29.0716 84.9199 29.1445C84.9199 29.2357 84.9108 29.3086 84.8926 29.3633C84.8926 29.418 84.9017 29.4727 84.9199 29.5273C84.9199 29.6367 84.9199 29.737 84.9199 29.8281C84.9382 29.974 84.9382 30.056 84.9199 30.0742C84.9199 30.0924 84.9199 30.1198 84.9199 30.1562C84.9017 30.2292 84.8926 30.3021 84.8926 30.375C84.9108 30.4479 84.9199 30.5208 84.9199 30.5938C84.9199 30.7214 84.9108 30.8398 84.8926 30.9492C84.8743 31.0586 84.8652 31.1771 84.8652 31.3047C84.8652 31.487 84.8652 31.5781 84.8652 31.5781C84.8835 31.5781 84.8926 31.5872 84.8926 31.6055C84.8561 31.8789 84.8014 32.0977 84.7285 32.2617C84.7467 32.3529 84.7467 32.444 84.7285 32.5352C84.7103 32.6081 84.6921 32.6901 84.6738 32.7812C84.6374 32.8724 84.61 32.9544 84.5918 33.0273C84.5918 33.082 84.5736 33.1458 84.5371 33.2188C84.446 33.401 84.3913 33.5286 84.373 33.6016C84.3548 33.6562 84.3457 33.7292 84.3457 33.8203C84.2546 33.9115 84.1908 34.0208 84.1543 34.1484C84.1361 34.2578 84.0723 34.349 83.9629 34.4219C83.8353 34.6042 83.7715 34.7135 83.7715 34.75C83.7715 34.7865 83.7624 34.8229 83.7441 34.8594C83.7077 34.9323 83.653 35.0143 83.5801 35.1055C83.5254 35.1784 83.4798 35.2604 83.4434 35.3516C83.3522 35.4792 83.2884 35.5612 83.252 35.5977C83.179 35.7253 83.1152 35.8164 83.0605 35.8711C83.0241 35.9076 82.9876 35.9622 82.9512 36.0352C82.9147 36.0898 82.8691 36.1445 82.8145 36.1992C82.778 36.2539 82.7507 36.3268 82.7324 36.418C82.6048 36.5273 82.5319 36.6003 82.5137 36.6367C82.5137 36.6732 82.5046 36.7096 82.4863 36.7461C82.3952 36.8737 82.3405 36.9466 82.3223 36.9648C82.3223 36.9831 82.304 37.0013 82.2676 37.0195C82.14 37.1289 82.0488 37.2109 81.9941 37.2656C81.9577 37.3203 81.9212 37.3659 81.8848 37.4023C81.7025 37.5482 81.584 37.6393 81.5293 37.6758C81.4746 37.7122 81.429 37.7578 81.3926 37.8125C81.2467 37.9583 81.1738 38.0312 81.1738 38.0312C81.1738 38.013 81.1556 38.0039 81.1191 38.0039C80.9551 38.168 80.8457 38.2773 80.791 38.332C80.7546 38.3867 80.709 38.4323 80.6543 38.4688C80.5996 38.5052 80.5358 38.5508 80.4629 38.6055C80.4082 38.6602 80.3535 38.7057 80.2988 38.7422C80.2624 38.7786 80.2168 38.8151 80.1621 38.8516C80.1074 38.888 80.0618 38.9245 80.0254 38.9609C79.8613 39.0885 79.7611 39.1615 79.7246 39.1797C79.7064 39.1797 79.6882 39.1979 79.6699 39.2344C79.5423 39.2708 79.4147 39.3255 79.2871 39.3984C79.1777 39.4714 79.0592 39.526 78.9316 39.5625C78.7311 39.6536 78.6126 39.7174 78.5762 39.7539C78.5397 39.7721 78.5033 39.7904 78.4668 39.8086C78.2845 39.8633 78.1842 39.8906 78.166 39.8906C78.166 39.8724 78.1478 39.8724 78.1113 39.8906C77.9108 39.9635 77.7741 40 77.7012 40C77.6465 39.9818 77.5736 39.9909 77.4824 40.0273C77.2819 40.082 77.1816 40.1094 77.1816 40.1094C76.89 40.1641 76.6803 40.2096 76.5527 40.2461C76.4251 40.2826 76.2975 40.3099 76.1699 40.3281C76.097 40.3464 75.9694 40.3555 75.7871 40.3555C75.696 40.3919 75.623 40.4102 75.5684 40.4102C75.5319 40.4284 75.4954 40.4466 75.459 40.4648C75.2767 40.4831 75.1309 40.4831 75.0215 40.4648C74.9121 40.4466 74.7663 40.4648 74.584 40.5195C74.5111 40.4831 74.429 40.474 74.3379 40.4922C74.265 40.5104 74.2103 40.5013 74.1738 40.4648C73.9915 40.4648 73.8639 40.474 73.791 40.4922C73.7181 40.5104 73.6543 40.5195 73.5996 40.5195C73.4173 40.5013 73.2897 40.4831 73.2168 40.4648C73.1621 40.4648 73.1165 40.474 73.0801 40.4922C72.9525 40.4375 72.8704 40.401 72.834 40.3828C72.8158 40.3828 72.7884 40.3919 72.752 40.4102L72.4512 40.3555C72.2689 40.2826 72.1504 40.2461 72.0957 40.2461C72.041 40.2643 71.9863 40.2643 71.9316 40.2461C71.8405 40.2279 71.7585 40.2005 71.6855 40.1641C71.6126 40.1276 71.5397 40.1276 71.4668 40.1641C71.3027 40.0547 71.1842 39.9909 71.1113 39.9727C71.0566 39.9362 70.9928 39.9089 70.9199 39.8906C70.7559 39.763 70.6556 39.6901 70.6191 39.6719C70.6009 39.6536 70.5736 39.6354 70.5371 39.6172C70.3366 39.5443 70.2272 39.4987 70.209 39.4805C70.1908 39.4622 70.1634 39.4531 70.127 39.4531C69.9811 39.3438 69.8991 39.2982 69.8809 39.3164C69.8809 39.3164 69.8626 39.3073 69.8262 39.2891C69.6439 39.125 69.5527 39.043 69.5527 39.043C69.571 39.0247 69.5618 38.9974 69.5254 38.9609C69.3613 38.888 69.2793 38.8516 69.2793 38.8516C69.2793 38.8333 69.2702 38.8242 69.252 38.8242L68.9512 38.5781L68.6777 38.4141C68.5319 38.25 68.459 38.1589 68.459 38.1406L68.2129 37.9492C68.0124 37.7852 67.8757 37.6849 67.8027 37.6484C67.748 37.5938 67.6751 37.5391 67.584 37.4844C67.5111 37.3568 67.4655 37.2839 67.4473 37.2656C67.4473 37.2474 67.429 37.2292 67.3926 37.2109C67.265 37.0104 67.1829 36.8919 67.1465 36.8555C67.11 36.8008 67.0645 36.7552 67.0098 36.7188C66.9551 36.5547 66.8548 36.4089 66.709 36.2812C66.5814 36.099 66.4993 35.9896 66.4629 35.9531C66.4264 35.8802 66.3809 35.8164 66.3262 35.7617C66.2897 35.6888 66.2533 35.6068 66.2168 35.5156C66.1257 35.4062 66.0527 35.3242 65.998 35.2695C65.9069 35.1055 65.8613 35.0143 65.8613 34.9961C65.8249 34.9596 65.7793 34.8594 65.7246 34.6953C65.597 34.4583 65.5241 34.3125 65.5059 34.2578C65.3965 34.0573 65.3418 33.9388 65.3418 33.9023C65.3418 33.8659 65.3236 33.8294 65.2871 33.793C65.2142 33.5924 65.1686 33.474 65.1504 33.4375L65.041 33.0547C64.9681 32.8906 64.9225 32.7448 64.9043 32.6172C64.8861 32.4896 64.8496 32.3711 64.7949 32.2617C64.7767 32.1523 64.7585 32.0794 64.7402 32.043C64.7402 31.9883 64.722 31.9245 64.6855 31.8516C64.5762 31.5052 64.5306 31.2044 64.5488 30.9492C64.5488 30.8763 64.5488 30.8125 64.5488 30.7578C64.5671 30.7031 64.5762 30.6393 64.5762 30.5664C64.5579 30.4935 64.5397 30.4206 64.5215 30.3477C64.5215 30.2747 64.5124 30.1927 64.4941 30.1016C64.5124 29.9193 64.5033 29.8008 64.4668 29.7461C64.4486 29.6914 64.4486 29.6276 64.4668 29.5547C64.4303 29.4453 64.4212 29.3724 64.4395 29.3359C64.4577 29.2812 64.4668 29.2083 64.4668 29.1172C64.4668 28.9896 64.4668 28.9167 64.4668 28.8984C64.485 28.8802 64.4941 28.8529 64.4941 28.8164C64.5124 28.7435 64.5215 28.6706 64.5215 28.5977C64.5215 28.5247 64.5306 28.4518 64.5488 28.3789C64.5671 28.2148 64.5762 28.1055 64.5762 28.0508C64.5762 27.9961 64.5853 27.9232 64.6035 27.832C64.64 27.5951 64.6673 27.4674 64.6855 27.4492C64.722 27.2487 64.7402 27.1211 64.7402 27.0664C64.7402 27.0117 64.7493 26.957 64.7676 26.9023C64.8405 26.7747 64.877 26.7018 64.877 26.6836C64.877 26.6471 64.8952 26.6198 64.9316 26.6016C64.9499 26.3828 64.9772 26.2188 65.0137 26.1094C65.1413 25.9089 65.2051 25.7995 65.2051 25.7812C65.2051 25.7448 65.2142 25.7083 65.2324 25.6719C65.2507 25.6354 65.278 25.599 65.3145 25.5625C65.3509 25.5078 65.3874 25.4531 65.4238 25.3984C65.4785 25.3073 65.5241 25.2161 65.5605 25.125C65.6152 25.0156 65.679 24.9154 65.752 24.8242C65.7155 24.7695 65.7246 24.7148 65.7793 24.6602C65.834 24.6055 65.8431 24.5508 65.8066 24.4961C65.8796 24.4232 65.9342 24.3411 65.9707 24.25C66.0254 24.1589 66.0892 24.0859 66.1621 24.0312C66.1621 23.9401 66.1803 23.8672 66.2168 23.8125C66.2715 23.7578 66.3171 23.7031 66.3535 23.6484C66.39 23.5755 66.4355 23.5208 66.4902 23.4844C66.5632 23.4297 66.627 23.375 66.6816 23.3203C66.8092 23.1745 66.873 23.0924 66.873 23.0742C66.873 23.056 66.8822 23.0378 66.9004 23.0195C66.9915 22.8919 67.0462 22.819 67.0645 22.8008C67.1009 22.7826 67.1283 22.7461 67.1465 22.6914C67.2194 22.6732 67.2741 22.6367 67.3105 22.582C67.3652 22.5273 67.4199 22.4818 67.4746 22.4453C67.5658 22.3724 67.6204 22.3359 67.6387 22.3359C67.6751 22.3177 67.7116 22.2904 67.748 22.2539C67.8574 22.1263 67.9395 22.0352 67.9941 21.9805C68.0306 21.944 68.0671 21.9076 68.1035 21.8711C68.14 21.8346 68.1764 21.7982 68.2129 21.7617C68.3587 21.6159 68.4408 21.543 68.459 21.543C68.5866 21.4701 68.6595 21.4245 68.6777 21.4062C68.7142 21.3698 68.7689 21.3424 68.8418 21.3242L69.0605 21.1055C69.1882 20.9779 69.2611 20.9049 69.2793 20.8867C69.2975 20.8685 69.3158 20.8411 69.334 20.8047L69.6348 20.6133C69.7624 20.4857 69.8626 20.4219 69.9355 20.4219C70.1178 20.3125 70.2272 20.2578 70.2637 20.2578C70.3184 20.2578 70.373 20.2396 70.4277 20.2031C70.5918 20.1667 70.7103 20.1393 70.7832 20.1211C70.8926 20.0482 70.9655 20.0117 71.002 20.0117C71.0384 19.9935 71.0749 19.9753 71.1113 19.957C71.3483 19.9753 71.5215 19.957 71.6309 19.9023C71.7402 19.8477 71.8405 19.8021 71.9316 19.7656C72.0592 19.6927 72.1595 19.638 72.2324 19.6016C72.3053 19.5469 72.3874 19.5104 72.4785 19.4922C72.6973 19.474 72.834 19.4557 72.8887 19.4375C72.9434 19.4193 73.0163 19.4102 73.1074 19.4102L73.5176 19.3281C73.6999 19.2917 73.8092 19.2826 73.8457 19.3008C73.9004 19.319 73.946 19.3281 73.9824 19.3281L74.2285 19.2734ZM79.0684 25.8086C79.0684 25.7174 79.041 25.6445 78.9863 25.5898C78.9499 25.5169 78.9134 25.4349 78.877 25.3438C78.7129 25.1797 78.6035 25.0794 78.5488 25.043C78.5124 25.0065 78.4668 24.9701 78.4121 24.9336C78.2845 24.7878 78.1751 24.6875 78.084 24.6328C77.9746 24.5052 77.9017 24.4414 77.8652 24.4414C77.847 24.4414 77.8379 24.4232 77.8379 24.3867L77.5645 24.2227C77.4004 24.0951 77.2181 23.9857 77.0176 23.8945L76.7168 23.8125C76.498 23.7214 76.3704 23.6576 76.334 23.6211C76.2064 23.5482 76.1152 23.5117 76.0605 23.5117C76.0059 23.5117 75.9603 23.5026 75.9238 23.4844C75.7233 23.4115 75.6048 23.3659 75.5684 23.3477C75.3861 23.3294 75.2767 23.3112 75.2402 23.293C75.2038 23.2565 75.1673 23.2565 75.1309 23.293H74.7207C74.5566 23.3112 74.429 23.3294 74.3379 23.3477C74.2467 23.3477 74.1647 23.3659 74.0918 23.4023C73.8548 23.457 73.6999 23.4844 73.627 23.4844C73.554 23.4844 73.472 23.5026 73.3809 23.5391C73.235 23.5938 73.1439 23.6302 73.1074 23.6484C73.071 23.6667 73.0436 23.6667 73.0254 23.6484C72.8613 23.6849 72.7702 23.7122 72.752 23.7305C72.7337 23.7305 72.7155 23.7396 72.6973 23.7578L72.4238 23.8945C72.3509 23.931 72.2871 23.9674 72.2324 24.0039C72.196 24.0221 72.1595 24.0495 72.123 24.0859C71.9043 24.25 71.7767 24.3411 71.7402 24.3594C71.5762 24.5052 71.4941 24.569 71.4941 24.5508C71.3118 24.806 71.1751 24.9792 71.084 25.0703C71.0111 25.1432 70.9473 25.2253 70.8926 25.3164C70.8014 25.3346 70.7376 25.3802 70.7012 25.4531C70.6647 25.526 70.61 25.5807 70.5371 25.6172C70.5007 25.7266 70.4551 25.8177 70.4004 25.8906C70.3457 25.9635 70.3001 26.0547 70.2637 26.1641C70.1725 26.3099 70.0905 26.4375 70.0176 26.5469C69.9629 26.638 69.9173 26.7292 69.8809 26.8203C69.8444 26.9479 69.8262 27.0482 69.8262 27.1211C69.735 27.2669 69.6895 27.3581 69.6895 27.3945C69.7077 27.4128 69.7168 27.431 69.7168 27.4492C69.7168 27.5768 69.7077 27.6589 69.6895 27.6953C69.6895 27.7318 69.6895 27.7682 69.6895 27.8047C69.653 28.0052 69.6257 28.1146 69.6074 28.1328C69.6074 28.1328 69.6074 28.1419 69.6074 28.1602C69.5527 28.3607 69.5254 28.4701 69.5254 28.4883C69.5436 28.5065 69.5436 28.5339 69.5254 28.5703C69.4525 28.7891 69.416 28.9622 69.416 29.0898C69.4342 29.1992 69.4434 29.2995 69.4434 29.3906C69.4251 29.5182 69.416 29.6185 69.416 29.6914C69.4342 29.7461 69.4434 29.8008 69.4434 29.8555C69.4069 30.0924 69.3887 30.2474 69.3887 30.3203C69.4069 30.375 69.416 30.4388 69.416 30.5117C69.416 30.5664 69.4069 30.6211 69.3887 30.6758C69.3887 30.7305 69.3978 30.7852 69.416 30.8398C69.4342 30.8763 69.4525 30.9219 69.4707 30.9766C69.4889 31.0312 69.498 31.0859 69.498 31.1406C69.5163 31.3411 69.5254 31.4505 69.5254 31.4688C69.5436 31.487 69.5527 31.5143 69.5527 31.5508C69.5892 31.6966 69.5983 31.8242 69.5801 31.9336C69.5801 32.0247 69.6165 32.1159 69.6895 32.207C69.6895 32.2617 69.6895 32.3346 69.6895 32.4258C69.7077 32.5169 69.7259 32.5807 69.7441 32.6172C69.8171 32.7266 69.8626 32.8177 69.8809 32.8906L70.0449 33.1914C70.0632 33.2826 70.0905 33.3555 70.127 33.4102C70.1634 33.4648 70.1908 33.5286 70.209 33.6016C70.3001 33.6927 70.3822 33.793 70.4551 33.9023C70.528 33.9935 70.5827 34.112 70.6191 34.2578C70.6556 34.2943 70.7012 34.3307 70.7559 34.3672C70.8105 34.4036 70.8561 34.4583 70.8926 34.5312C71.0931 34.7135 71.2116 34.832 71.248 34.8867C71.3392 34.9232 71.4212 34.9779 71.4941 35.0508C71.5853 35.1055 71.6764 35.1693 71.7676 35.2422C71.8223 35.2786 71.877 35.3242 71.9316 35.3789C71.9863 35.4154 72.0319 35.4427 72.0684 35.4609C72.196 35.5703 72.2871 35.625 72.3418 35.625C72.3965 35.625 72.4421 35.6341 72.4785 35.6523C72.679 35.7253 72.7884 35.7708 72.8066 35.7891C73.0072 35.862 73.1074 35.8984 73.1074 35.8984C73.3262 35.9896 73.472 36.0443 73.5449 36.0625C73.6178 36.0807 73.6725 36.099 73.709 36.1172C73.9095 36.1536 74.028 36.1628 74.0645 36.1445C74.1191 36.1263 74.1647 36.1172 74.2012 36.1172C74.3835 36.1172 74.4837 36.1172 74.502 36.1172C74.5202 36.099 74.5475 36.0898 74.584 36.0898C74.821 36.1445 74.9577 36.1719 74.9941 36.1719C75.0488 36.1536 75.1035 36.1354 75.1582 36.1172C75.304 36.0625 75.4772 36.0534 75.6777 36.0898C75.7689 36.0534 75.8509 36.026 75.9238 36.0078C76.015 35.9714 76.097 35.9349 76.1699 35.8984C76.2611 35.8438 76.3249 35.8255 76.3613 35.8438C76.416 35.8438 76.4616 35.8346 76.498 35.8164C76.6803 35.7435 76.7806 35.6979 76.7988 35.6797C76.9264 35.5885 77.0176 35.5521 77.0723 35.5703C77.1452 35.5703 77.1999 35.5703 77.2363 35.5703C77.3275 35.5521 77.3913 35.5247 77.4277 35.4883C77.4642 35.4336 77.5189 35.3971 77.5918 35.3789C77.7376 35.3424 77.8379 35.2969 77.8926 35.2422C78.1113 35.151 78.2298 35.0964 78.248 35.0781C78.2663 35.0417 78.2936 35.0234 78.3301 35.0234C78.5488 34.8047 78.6764 34.6589 78.7129 34.5859C78.8405 34.4766 78.9225 34.4036 78.959 34.3672C78.9954 34.2031 79.041 34.0938 79.0957 34.0391C79.2051 34.0026 79.2689 33.9661 79.2871 33.9297C79.3236 33.875 79.3509 33.8294 79.3691 33.793C79.4603 33.6289 79.515 33.5378 79.5332 33.5195C79.5514 33.5013 79.5605 33.4831 79.5605 33.4648C79.597 33.319 79.6061 33.237 79.5879 33.2188C79.5879 33.2005 79.5879 33.1732 79.5879 33.1367C79.6973 32.9909 79.7702 32.8359 79.8066 32.6719C79.8249 32.5807 79.8431 32.4805 79.8613 32.3711C79.8978 32.2435 79.9342 32.1615 79.9707 32.125C80.0436 31.9245 80.0892 31.7969 80.1074 31.7422C80.1257 31.6693 80.1439 31.5964 80.1621 31.5234C80.1803 31.3958 80.1986 31.3138 80.2168 31.2773C80.235 31.2227 80.2441 31.1771 80.2441 31.1406C80.2259 30.9401 80.2259 30.8307 80.2441 30.8125C80.2624 30.776 80.2533 30.7396 80.2168 30.7031C80.2715 30.4661 80.2988 30.3203 80.2988 30.2656C80.2806 30.1016 80.2715 29.9922 80.2715 29.9375C80.2897 29.8646 80.2806 29.8099 80.2441 29.7734C80.2806 29.5547 80.2715 29.3359 80.2168 29.1172L80.1348 28.7891C80.0801 28.625 80.0527 28.5156 80.0527 28.4609C80.0345 28.2604 79.998 28.1237 79.9434 28.0508C79.8704 27.9049 79.834 27.8047 79.834 27.75C79.8522 27.6953 79.8613 27.6497 79.8613 27.6133C79.8431 27.5586 79.8158 27.5039 79.7793 27.4492C79.7611 27.3945 79.7428 27.3398 79.7246 27.2852C79.7064 27.0846 79.6882 26.9661 79.6699 26.9297C79.5788 26.7474 79.5332 26.638 79.5332 26.6016C79.4421 26.401 79.3965 26.2734 79.3965 26.2188C79.3965 26.1458 79.3783 26.0638 79.3418 25.9727C79.2507 25.9727 79.1868 25.9453 79.1504 25.8906C79.1322 25.8359 79.1048 25.8086 79.0684 25.8086ZM101.08 35.8438C101.08 35.8984 101.062 35.9531 101.025 36.0078C101.007 36.0443 100.989 36.0898 100.971 36.1445C100.952 36.3268 100.925 36.4362 100.889 36.4727C100.87 36.6732 100.843 36.7826 100.807 36.8008C100.788 36.819 100.798 36.8464 100.834 36.8828C100.761 36.9193 100.715 36.9922 100.697 37.1016C100.679 37.1927 100.652 37.2839 100.615 37.375C100.579 37.4661 100.542 37.5573 100.506 37.6484C100.488 37.7214 100.46 37.7943 100.424 37.8672C100.406 37.9948 100.396 38.0768 100.396 38.1133C100.396 38.1315 100.378 38.1589 100.342 38.1953L100.178 38.5234C100.178 38.6146 100.16 38.6875 100.123 38.7422C100.087 38.7969 100.077 38.8607 100.096 38.9336C99.9681 39.1706 99.8952 39.3802 99.877 39.5625C99.7129 39.7083 99.6217 39.8177 99.6035 39.8906C99.4577 40 99.3757 40.0638 99.3574 40.082C99.3574 40.1003 99.3483 40.1185 99.3301 40.1367C99.2572 40.1367 99.2025 40.1458 99.166 40.1641C99.1296 40.2005 99.0749 40.2188 99.002 40.2188C98.8197 40.2552 98.6921 40.2917 98.6191 40.3281C98.5098 40.3464 98.4368 40.3646 98.4004 40.3828C98.3639 40.401 98.3275 40.4193 98.291 40.4375C98.2363 40.4375 98.1816 40.4284 98.127 40.4102C98.0723 40.4102 97.9993 40.4102 97.9082 40.4102C97.8353 40.4102 97.7624 40.4193 97.6895 40.4375C97.6165 40.4557 97.5436 40.4648 97.4707 40.4648C97.3249 40.4466 97.2337 40.4375 97.1973 40.4375C97.1608 40.4557 97.1243 40.4648 97.0879 40.4648C96.8874 40.4284 96.7598 40.4102 96.7051 40.4102C96.6504 40.4284 96.5957 40.4375 96.541 40.4375C96.3405 40.401 96.2311 40.3828 96.2129 40.3828C96.2129 40.401 96.2038 40.4102 96.1855 40.4102C95.9668 40.3919 95.7845 40.3646 95.6387 40.3281C95.5111 40.3464 95.4199 40.3464 95.3652 40.3281C95.3105 40.3099 95.2559 40.3281 95.2012 40.3828C95.0371 40.3646 94.9368 40.3372 94.9004 40.3008C94.8822 40.2826 94.8639 40.2917 94.8457 40.3281C94.627 40.2188 94.4811 40.1549 94.4082 40.1367C94.3535 40.1367 94.3079 40.1094 94.2715 40.0547C94.2168 40.0911 94.153 40.0911 94.0801 40.0547C94.0254 40.0365 93.9798 40.0456 93.9434 40.082C93.834 40.0091 93.7337 39.9727 93.6426 39.9727C93.5332 39.8997 93.4147 39.8542 93.2871 39.8359C93.1048 39.7812 93.0046 39.7539 92.9863 39.7539C92.8223 39.6992 92.722 39.6628 92.6855 39.6445C92.5215 39.5352 92.403 39.4622 92.3301 39.4258C92.2754 39.3893 92.2025 39.3711 92.1113 39.3711L91.7832 39.1797C91.5827 39.0703 91.4733 39.0065 91.4551 38.9883C91.4368 38.9701 91.4004 38.9609 91.3457 38.9609C91.1999 38.8333 91.1087 38.7604 91.0723 38.7422C91.054 38.7057 91.0176 38.6875 90.9629 38.6875L90.6621 38.4688C90.4798 38.3958 90.3704 38.332 90.334 38.2773C90.3158 38.2227 90.2793 38.2044 90.2246 38.2227C90.1152 38.1315 90.0423 38.0677 90.0059 38.0312C89.9694 37.9766 89.9056 37.9492 89.8145 37.9492C89.6139 37.8034 89.4863 37.7031 89.4316 37.6484C89.3952 37.5938 89.3405 37.5573 89.2676 37.5391C89.2493 37.4115 89.1947 37.3203 89.1035 37.2656C89.0853 37.1745 89.0579 37.1107 89.0215 37.0742C88.985 37.0195 88.9486 36.9557 88.9121 36.8828C88.6569 36.737 88.4655 36.5273 88.3379 36.2539C88.265 36.181 88.2103 36.099 88.1738 36.0078C88.1556 35.9167 88.1191 35.8255 88.0645 35.7344C88.028 35.6979 88.0007 35.6432 87.9824 35.5703C87.9642 35.4974 87.9368 35.4427 87.9004 35.4062C87.8639 35.3333 87.8275 35.2513 87.791 35.1602C87.7728 35.069 87.7363 34.9961 87.6816 34.9414C87.6999 34.8503 87.6908 34.7865 87.6543 34.75C87.6361 34.6953 87.627 34.6406 87.627 34.5859C87.5176 34.4401 87.4538 34.3398 87.4355 34.2852C87.4355 34.2122 87.4173 34.1576 87.3809 34.1211C87.3079 33.9753 87.2715 33.8932 87.2715 33.875C87.2897 33.8568 87.2897 33.8294 87.2715 33.793C87.235 33.7383 87.2077 33.6745 87.1895 33.6016C87.1712 33.5104 87.1439 33.4284 87.1074 33.3555C87.071 33.2279 87.0436 33.1458 87.0254 33.1094C87.0254 33.0547 87.0072 33.0091 86.9707 32.9727C86.9342 32.7721 86.916 32.599 86.916 32.4531C86.916 32.2891 86.8796 32.1615 86.8066 32.0703C86.8431 31.9245 86.8522 31.8516 86.834 31.8516C86.8158 31.8333 86.8066 31.806 86.8066 31.7695C86.8066 31.5872 86.8066 31.4414 86.8066 31.332C86.8066 31.2409 86.7975 31.1497 86.7793 31.0586C86.7611 30.9492 86.7428 30.849 86.7246 30.7578C86.7246 30.6302 86.7246 30.5208 86.7246 30.4297C86.7246 30.3203 86.7155 30.2109 86.6973 30.1016C86.6973 29.974 86.6882 29.8919 86.6699 29.8555C86.6699 29.819 86.679 29.7917 86.6973 29.7734C86.6973 29.5729 86.6973 29.3997 86.6973 29.2539C86.6973 29.1081 86.7337 28.9896 86.8066 28.8984C86.8431 28.6979 86.8522 28.5703 86.834 28.5156C86.834 28.4427 86.8249 28.3789 86.8066 28.3242C86.8613 28.069 86.8887 27.9141 86.8887 27.8594C86.8887 27.7865 86.8978 27.7135 86.916 27.6406L86.9707 27.2578L87.0527 26.875C87.1074 26.7839 87.1348 26.7018 87.1348 26.6289C87.153 26.556 87.1803 26.4922 87.2168 26.4375C87.2533 26.3099 87.2715 26.2096 87.2715 26.1367C87.2715 26.0638 87.2897 25.9909 87.3262 25.918C87.3809 25.8268 87.4082 25.7721 87.4082 25.7539C87.4082 25.7174 87.4264 25.681 87.4629 25.6445C87.5723 25.5169 87.6178 25.444 87.5996 25.4258C87.5996 25.4076 87.6087 25.3893 87.627 25.3711C87.6634 25.2617 87.6908 25.1979 87.709 25.1797C87.7272 25.1615 87.7454 25.1341 87.7637 25.0977C87.8366 24.9154 87.8822 24.8151 87.9004 24.7969C88.028 24.6328 88.0918 24.5143 88.0918 24.4414C88.2194 24.2773 88.2832 24.1953 88.2832 24.1953C88.2832 24.1771 88.3014 24.1589 88.3379 24.1406C88.429 24.0312 88.4746 23.9674 88.4746 23.9492C88.4928 23.9128 88.5202 23.8763 88.5566 23.8398C88.6842 23.6576 88.748 23.5664 88.748 23.5664C88.748 23.5482 88.7572 23.5299 88.7754 23.5117C88.9395 23.3659 89.0215 23.2839 89.0215 23.2656C89.0215 23.2474 89.0306 23.2292 89.0488 23.2109C89.14 23.0651 89.2129 22.9648 89.2676 22.9102C89.3405 22.8372 89.3952 22.7917 89.4316 22.7734C89.4681 22.737 89.4863 22.7005 89.4863 22.6641C89.5775 22.6458 89.6413 22.6185 89.6777 22.582C89.7324 22.5273 89.8053 22.4818 89.8965 22.4453C90.0788 22.263 90.179 22.1536 90.1973 22.1172C90.3249 22.0078 90.3796 21.944 90.3613 21.9258C90.3613 21.9076 90.3704 21.8893 90.3887 21.8711C90.5163 21.7982 90.5983 21.7526 90.6348 21.7344C90.6895 21.6979 90.735 21.6615 90.7715 21.625C90.8809 21.5339 90.9447 21.4792 90.9629 21.4609C90.9993 21.4245 91.0358 21.388 91.0723 21.3516C91.3275 21.2422 91.5007 21.1419 91.5918 21.0508L91.9473 20.9414C92.0749 20.8867 92.1751 20.8047 92.248 20.6953C92.4668 20.6406 92.5853 20.6042 92.6035 20.5859C92.7311 20.4948 92.804 20.4492 92.8223 20.4492C92.8587 20.431 92.8861 20.4036 92.9043 20.3672C93.0501 20.349 93.1322 20.3398 93.1504 20.3398C93.1868 20.3216 93.2233 20.3034 93.2598 20.2852C93.4238 20.2122 93.5332 20.1758 93.5879 20.1758C93.6608 20.1758 93.7155 20.1667 93.752 20.1484C93.916 20.0755 93.998 20.0482 93.998 20.0664C94.0163 20.0664 94.0345 20.0573 94.0527 20.0391C94.1074 20.0208 94.153 20.0026 94.1895 19.9844C94.2441 19.9661 94.2988 19.9479 94.3535 19.9297C94.5358 19.875 94.6543 19.8477 94.709 19.8477C94.7637 19.8477 94.8275 19.8294 94.9004 19.793C95.0827 19.7018 95.2012 19.6654 95.2559 19.6836C95.3105 19.6836 95.3561 19.6745 95.3926 19.6562C95.5749 19.638 95.6842 19.6198 95.7207 19.6016C95.7754 19.5651 95.821 19.5378 95.8574 19.5195C95.9486 19.5013 96.0306 19.4922 96.1035 19.4922C96.1947 19.4922 96.2949 19.4922 96.4043 19.4922C96.4954 19.474 96.5866 19.4557 96.6777 19.4375C96.7871 19.4193 96.8965 19.4102 97.0059 19.4102H97.4434C97.498 19.4648 97.571 19.4922 97.6621 19.4922C97.7715 19.474 97.8809 19.4648 97.9902 19.4648C98.209 19.4831 98.3366 19.5013 98.373 19.5195C98.4095 19.5195 98.446 19.5195 98.4824 19.5195C98.6829 19.5742 98.8014 19.6016 98.8379 19.6016C98.8926 19.5833 98.9564 19.5924 99.0293 19.6289C99.084 19.6471 99.1296 19.6745 99.166 19.7109C99.2025 19.7474 99.248 19.7839 99.3027 19.8203C99.3392 19.8568 99.3757 19.8932 99.4121 19.9297C99.4486 19.9661 99.485 20.0026 99.5215 20.0391C99.5215 20.1849 99.5488 20.2852 99.6035 20.3398C99.6582 20.5221 99.6947 20.6497 99.7129 20.7227C99.7311 20.7956 99.7585 20.8685 99.7949 20.9414C99.8314 21.1602 99.8861 21.306 99.959 21.3789C99.9772 21.5794 99.9954 21.6797 100.014 21.6797C100.105 21.8438 100.141 21.9531 100.123 22.0078C100.123 22.0443 100.132 22.0807 100.15 22.1172C100.205 22.1901 100.242 22.2539 100.26 22.3086C100.278 22.3633 100.324 22.4089 100.396 22.4453C100.433 22.6276 100.46 22.7552 100.479 22.8281C100.515 22.901 100.551 22.974 100.588 23.0469C100.661 23.2656 100.688 23.3841 100.67 23.4023C100.67 23.4206 100.67 23.4479 100.67 23.4844C100.67 23.5208 100.67 23.5755 100.67 23.6484C100.688 23.7031 100.706 23.776 100.725 23.8672C100.652 23.9948 100.606 24.0677 100.588 24.0859C100.57 24.1042 100.551 24.1315 100.533 24.168C100.387 24.1862 100.305 24.2135 100.287 24.25C100.287 24.2682 100.269 24.2956 100.232 24.332C100.16 24.332 100.087 24.3229 100.014 24.3047C99.959 24.2865 99.9134 24.2956 99.877 24.332C99.6764 24.3138 99.5579 24.3138 99.5215 24.332C99.5033 24.332 99.4759 24.332 99.4395 24.332C99.403 24.332 99.3483 24.3229 99.2754 24.3047C99.2207 24.2865 99.1751 24.2773 99.1387 24.2773C99.0658 24.2409 98.9837 24.2135 98.8926 24.1953C98.8014 24.1771 98.7285 24.168 98.6738 24.168C98.5462 24.1862 98.446 24.1953 98.373 24.1953C98.3184 24.1771 98.2454 24.1589 98.1543 24.1406C98.0085 24.2318 97.8444 24.2409 97.6621 24.168C97.6257 24.2044 97.571 24.2227 97.498 24.2227C97.4251 24.2227 97.3704 24.25 97.334 24.3047C97.1882 24.3047 97.0788 24.3138 97.0059 24.332C96.7324 24.3867 96.5501 24.4141 96.459 24.4141C96.2038 24.487 96.0306 24.5508 95.9395 24.6055C95.8665 24.6419 95.7845 24.6784 95.6934 24.7148C95.6204 24.7513 95.5293 24.806 95.4199 24.8789C95.2923 24.9701 95.2103 25.0156 95.1738 25.0156C95.1374 25.0156 95.1009 25.0247 95.0645 25.043C95.028 25.0794 94.9824 25.1159 94.9277 25.1523C94.8913 25.1706 94.8457 25.1979 94.791 25.2344C94.7181 25.3255 94.6361 25.4076 94.5449 25.4805C94.4538 25.5534 94.3626 25.6354 94.2715 25.7266C94.235 25.763 94.1986 25.7995 94.1621 25.8359C94.1257 25.8724 94.0892 25.9089 94.0527 25.9453C93.9251 26.0365 93.8431 26.1094 93.8066 26.1641C93.7702 26.2005 93.7337 26.2461 93.6973 26.3008C93.4785 26.4466 93.3509 26.5469 93.3145 26.6016C93.2051 26.6927 93.1048 26.8294 93.0137 27.0117C92.9408 27.194 92.8952 27.2943 92.877 27.3125C92.8587 27.3307 92.8496 27.3581 92.8496 27.3945C92.6855 27.5586 92.6035 27.6771 92.6035 27.75C92.6035 27.8229 92.5853 27.8776 92.5488 27.9141C92.4759 28.0781 92.4303 28.1693 92.4121 28.1875C92.4121 28.2057 92.4121 28.2331 92.4121 28.2695C92.3939 28.306 92.3665 28.3607 92.3301 28.4336C92.3118 28.4883 92.3027 28.5521 92.3027 28.625C92.2116 28.7708 92.166 28.8711 92.166 28.9258C92.1842 28.9622 92.1751 28.9805 92.1387 28.9805C92.1022 29.1992 92.0749 29.3268 92.0566 29.3633C92.0566 29.3997 92.0475 29.4362 92.0293 29.4727C92.0111 29.6914 92.002 29.8099 92.002 29.8281C92.0202 29.8464 92.0293 29.8737 92.0293 29.9102C91.9564 30.0924 91.9199 30.2109 91.9199 30.2656C91.9199 30.3021 91.9199 30.3385 91.9199 30.375C91.8835 30.6484 91.8926 30.7852 91.9473 30.7852C91.929 31.0586 91.9108 31.2773 91.8926 31.4414C91.8926 31.6055 91.9108 31.7695 91.9473 31.9336C91.9837 32.0977 92.0111 32.2161 92.0293 32.2891C92.0475 32.3438 92.0566 32.4167 92.0566 32.5078C92.0749 32.599 92.084 32.6719 92.084 32.7266C92.084 32.7812 92.1022 32.8451 92.1387 32.918C92.2663 33.1914 92.3757 33.401 92.4668 33.5469C92.6309 33.7292 92.7129 33.8385 92.7129 33.875C92.7311 33.8932 92.7585 33.9206 92.7949 33.957C92.8678 34.1758 92.9316 34.3125 92.9863 34.3672C93.041 34.4036 93.1048 34.4492 93.1777 34.5039C93.2689 34.5768 93.3327 34.6315 93.3691 34.668C93.4056 34.6862 93.4512 34.6953 93.5059 34.6953C93.5423 34.7682 93.597 34.8229 93.6699 34.8594C93.7428 34.8958 93.8249 34.9323 93.916 34.9688C94.0983 35.0781 94.1986 35.1419 94.2168 35.1602C94.2533 35.1784 94.2897 35.1875 94.3262 35.1875C94.5085 35.2422 94.5996 35.2969 94.5996 35.3516C94.7819 35.4245 94.8822 35.4609 94.9004 35.4609C94.9186 35.4427 94.9277 35.4518 94.9277 35.4883C95.0189 35.4883 95.0918 35.5065 95.1465 35.543C95.2194 35.5612 95.2832 35.5885 95.3379 35.625C95.5384 35.6432 95.6478 35.6615 95.666 35.6797C95.7025 35.6979 95.748 35.7161 95.8027 35.7344C95.8939 35.7526 95.985 35.7617 96.0762 35.7617C96.1673 35.7617 96.2402 35.7799 96.2949 35.8164C96.4408 35.8164 96.5228 35.8164 96.541 35.8164C96.5592 35.8164 96.5866 35.8346 96.623 35.8711C96.8236 35.8893 96.9421 35.8984 96.9785 35.8984C97.0332 35.8802 97.0788 35.8711 97.1152 35.8711C97.3158 35.9258 97.4251 35.944 97.4434 35.9258C97.6439 35.9076 97.7806 35.9076 97.8535 35.9258C97.9264 35.9258 97.9993 35.9076 98.0723 35.8711C98.2546 35.8711 98.3548 35.8802 98.373 35.8984C98.3913 35.8984 98.4095 35.8984 98.4277 35.8984C98.4824 35.8984 98.5371 35.8893 98.5918 35.8711C98.6647 35.8346 98.7285 35.8073 98.7832 35.7891C98.929 35.8073 99.0111 35.8073 99.0293 35.7891C99.0658 35.7708 99.1022 35.7526 99.1387 35.7344C99.3574 35.7344 99.4941 35.707 99.5488 35.6523C99.64 35.6523 99.7129 35.6432 99.7676 35.625C99.8405 35.6068 99.8952 35.5885 99.9316 35.5703C100.15 35.5156 100.26 35.4609 100.26 35.4062C100.333 35.4245 100.396 35.4427 100.451 35.4609C100.506 35.4792 100.57 35.4792 100.643 35.4609C100.679 35.4974 100.725 35.543 100.779 35.5977C100.834 35.6341 100.889 35.6523 100.943 35.6523L101.08 35.8438ZM103.678 19.7109C103.896 19.6745 104.088 19.638 104.252 19.6016C104.398 19.5469 104.48 19.5286 104.498 19.5469C104.516 19.5469 104.535 19.5469 104.553 19.5469C104.771 19.5104 104.908 19.5013 104.963 19.5195C105.036 19.5378 105.1 19.5469 105.154 19.5469C105.209 19.5833 105.264 19.5924 105.318 19.5742C105.391 19.556 105.455 19.5378 105.51 19.5195C105.583 19.5378 105.683 19.5469 105.811 19.5469C105.938 19.5286 106.029 19.5195 106.084 19.5195C106.339 19.5195 106.531 19.5104 106.658 19.4922C106.786 19.4557 106.913 19.4557 107.041 19.4922C107.296 19.4557 107.442 19.4466 107.479 19.4648C107.533 19.4831 107.579 19.5013 107.615 19.5195C107.798 19.5195 107.916 19.5469 107.971 19.6016C108.098 19.5651 108.189 19.5469 108.244 19.5469C108.299 19.5469 108.354 19.5651 108.408 19.6016C108.663 19.638 108.855 19.6745 108.982 19.7109C109.146 19.875 109.238 20.0208 109.256 20.1484C109.274 20.276 109.283 20.4128 109.283 20.5586C109.283 20.7773 109.265 20.9049 109.229 20.9414V21.3516C109.21 21.4245 109.192 21.4974 109.174 21.5703C109.156 21.625 109.137 21.6888 109.119 21.7617C109.119 21.8164 109.128 21.8711 109.146 21.9258C109.165 21.9622 109.165 22.0078 109.146 22.0625C109.146 22.2083 109.128 22.3359 109.092 22.4453C109.074 22.5365 109.064 22.6276 109.064 22.7188C109.064 22.7917 109.064 22.8555 109.064 22.9102C109.083 22.9466 109.064 23.0104 109.01 23.1016C109.01 23.2474 109.001 23.3659 108.982 23.457C108.964 23.5299 108.937 23.6302 108.9 23.7578C108.864 23.9036 108.846 24.0221 108.846 24.1133C108.864 24.2044 108.864 24.2956 108.846 24.3867C108.791 24.5326 108.764 24.6602 108.764 24.7695C108.782 24.8607 108.782 24.9518 108.764 25.043C108.764 25.1159 108.755 25.1888 108.736 25.2617C108.736 25.3346 108.727 25.4167 108.709 25.5078C108.691 25.6901 108.673 25.7904 108.654 25.8086C108.654 25.8086 108.654 25.8177 108.654 25.8359C108.654 26 108.663 26.1276 108.682 26.2188C108.7 26.2917 108.691 26.3737 108.654 26.4648C108.691 26.6471 108.691 26.793 108.654 26.9023C108.654 27.0299 108.645 27.1484 108.627 27.2578C108.627 27.349 108.627 27.4401 108.627 27.5312C108.609 27.8958 108.59 28.1966 108.572 28.4336C108.59 28.5612 108.59 28.6615 108.572 28.7344C108.572 28.7891 108.59 28.8346 108.627 28.8711C108.554 29.0716 108.527 29.1901 108.545 29.2266C108.563 29.263 108.563 29.2995 108.545 29.3359C108.527 29.5365 108.518 29.7005 108.518 29.8281C108.518 29.8828 108.508 29.9375 108.49 29.9922C108.472 30.0469 108.463 30.1016 108.463 30.1562C108.536 30.5938 108.563 30.9401 108.545 31.1953C108.545 31.4323 108.545 31.6784 108.545 31.9336C108.563 31.9883 108.563 32.0521 108.545 32.125C108.545 32.1979 108.545 32.2617 108.545 32.3164C108.563 32.4258 108.572 32.5352 108.572 32.6445C108.59 32.7357 108.6 32.8451 108.6 32.9727C108.581 33.0456 108.581 33.1094 108.6 33.1641C108.618 33.2188 108.627 33.2643 108.627 33.3008C108.609 33.5013 108.6 33.6289 108.6 33.6836C108.618 33.7383 108.636 33.8021 108.654 33.875C108.654 34.0755 108.663 34.1758 108.682 34.1758C108.663 34.3763 108.654 34.5039 108.654 34.5586C108.673 34.6133 108.682 34.6589 108.682 34.6953C108.7 34.8958 108.7 34.9961 108.682 34.9961C108.682 34.9961 108.682 35.0052 108.682 35.0234C108.682 35.1693 108.691 35.3151 108.709 35.4609C108.727 35.5885 108.745 35.7161 108.764 35.8438C108.782 36.0807 108.791 36.263 108.791 36.3906C108.809 36.4453 108.827 36.5091 108.846 36.582C108.864 36.6367 108.882 36.6914 108.9 36.7461C108.9 36.819 108.91 36.8828 108.928 36.9375C108.946 36.9922 108.955 37.0469 108.955 37.1016V37.457C108.955 37.5482 108.964 37.6393 108.982 37.7305C109.001 37.8034 109.019 37.8854 109.037 37.9766C109.055 38.0677 109.064 38.1497 109.064 38.2227C109.064 38.2956 109.083 38.3685 109.119 38.4414C109.119 38.7331 109.156 38.9518 109.229 39.0977C109.21 39.3346 109.21 39.4987 109.229 39.5898C109.265 39.6628 109.265 39.7357 109.229 39.8086C109.156 39.918 109.101 39.9909 109.064 40.0273C109.028 40.082 108.992 40.1367 108.955 40.1914C108.827 40.2096 108.755 40.2279 108.736 40.2461C108.718 40.2826 108.691 40.3008 108.654 40.3008C108.545 40.3008 108.417 40.3372 108.271 40.4102C108.107 40.3919 108.007 40.3828 107.971 40.3828C107.952 40.401 107.934 40.3919 107.916 40.3555C107.788 40.4102 107.679 40.4102 107.588 40.3555C107.497 40.4102 107.396 40.4193 107.287 40.3828C107.196 40.3646 107.105 40.3555 107.014 40.3555C106.959 40.3555 106.904 40.3646 106.85 40.3828C106.813 40.401 106.768 40.4193 106.713 40.4375C106.567 40.4193 106.485 40.4102 106.467 40.4102C106.449 40.4284 106.421 40.4375 106.385 40.4375C106.148 40.401 106.002 40.3737 105.947 40.3555C105.893 40.3372 105.838 40.319 105.783 40.3008C105.747 40.2826 105.692 40.2826 105.619 40.3008C105.528 40.319 105.419 40.319 105.291 40.3008C105.163 40.2826 105.036 40.2826 104.908 40.3008C104.762 40.2461 104.671 40.2096 104.635 40.1914C104.617 40.1914 104.589 40.2005 104.553 40.2188C104.425 40.2005 104.334 40.2005 104.279 40.2188C104.225 40.237 104.179 40.237 104.143 40.2188C103.997 40.1276 103.906 40.0729 103.869 40.0547C103.851 40.0547 103.814 40.0365 103.76 40C103.669 39.7812 103.623 39.6354 103.623 39.5625C103.641 39.4714 103.632 39.3802 103.596 39.2891C103.632 39.2344 103.632 39.1797 103.596 39.125C103.577 39.0521 103.577 38.9883 103.596 38.9336C103.65 38.7331 103.669 38.6237 103.65 38.6055C103.65 38.5872 103.66 38.5599 103.678 38.5234C103.714 38.3776 103.723 38.2682 103.705 38.1953C103.705 38.1042 103.723 38.0221 103.76 37.9492C103.778 37.7487 103.796 37.6211 103.814 37.5664C103.833 37.5117 103.851 37.4661 103.869 37.4297V36.8828C103.887 36.6823 103.906 36.5638 103.924 36.5273C103.942 36.4727 103.951 36.418 103.951 36.3633C103.951 36.1445 103.942 36.0078 103.924 35.9531C103.906 35.8802 103.906 35.8255 103.924 35.7891C103.942 35.6979 103.942 35.6068 103.924 35.5156C103.924 35.4062 103.924 35.306 103.924 35.2148C103.924 35.1237 103.933 35.0417 103.951 34.9688C103.969 34.8776 103.96 34.7865 103.924 34.6953C103.96 34.4766 103.979 34.2305 103.979 33.957C103.997 33.6654 103.997 33.3828 103.979 33.1094C103.979 33.0547 103.969 33 103.951 32.9453C103.951 32.8906 103.951 32.8268 103.951 32.7539C103.951 32.5169 103.942 32.3711 103.924 32.3164C103.924 32.2435 103.942 32.1797 103.979 32.125C103.942 32.0885 103.933 32.043 103.951 31.9883C103.988 31.9154 103.988 31.8607 103.951 31.8242C103.988 31.7878 103.997 31.7422 103.979 31.6875C103.979 31.6328 103.979 31.5781 103.979 31.5234C103.979 31.487 103.979 31.4414 103.979 31.3867C103.997 31.332 103.997 31.2682 103.979 31.1953C103.942 30.9766 103.924 30.8398 103.924 30.7852C103.942 30.7305 103.96 30.6758 103.979 30.6211C103.979 30.5117 103.969 30.4388 103.951 30.4023C103.951 30.3659 103.951 30.3294 103.951 30.293V29.7734C103.933 29.5911 103.915 29.5 103.896 29.5C103.896 29.4818 103.896 29.4544 103.896 29.418C103.915 29.2904 103.915 29.1992 103.896 29.1445C103.878 29.0716 103.869 29.0078 103.869 28.9531C103.869 28.8802 103.878 28.8164 103.896 28.7617C103.915 28.707 103.924 28.6523 103.924 28.5977C103.924 28.5065 103.915 28.4154 103.896 28.3242C103.896 28.2148 103.887 28.1146 103.869 28.0234C103.851 27.8594 103.842 27.7773 103.842 27.7773C103.86 27.7773 103.869 27.7591 103.869 27.7227C103.851 27.5221 103.842 27.3945 103.842 27.3398C103.86 27.2852 103.869 27.2214 103.869 27.1484C103.851 27.0208 103.833 26.9479 103.814 26.9297C103.796 26.8932 103.787 26.8568 103.787 26.8203C103.787 26.7656 103.796 26.7018 103.814 26.6289C103.833 26.556 103.842 26.474 103.842 26.3828C103.805 26.2188 103.787 26.1094 103.787 26.0547C103.787 26 103.778 25.9453 103.76 25.8906C103.76 25.7448 103.751 25.6536 103.732 25.6172C103.732 25.5625 103.732 25.5169 103.732 25.4805C103.732 25.3346 103.732 25.1432 103.732 24.9062C103.714 24.7786 103.705 24.6875 103.705 24.6328C103.723 24.5781 103.732 24.5234 103.732 24.4688C103.696 24.25 103.696 24.0859 103.732 23.9766C103.732 23.8125 103.714 23.6667 103.678 23.5391C103.66 23.4115 103.65 23.2839 103.65 23.1562C103.65 23.0833 103.65 23.0195 103.65 22.9648C103.669 22.8919 103.678 22.8372 103.678 22.8008C103.714 22.582 103.714 22.3906 103.678 22.2266C103.641 22.0625 103.614 21.862 103.596 21.625C103.468 21.1328 103.432 20.7591 103.486 20.5039C103.523 20.3216 103.541 20.2396 103.541 20.2578C103.559 20.2578 103.559 20.2396 103.541 20.2031C103.577 19.9844 103.605 19.8568 103.623 19.8203L103.678 19.7109ZM121.342 19.2734C121.451 19.2734 121.533 19.2826 121.588 19.3008C121.643 19.3008 121.688 19.2826 121.725 19.2461C121.87 19.3008 122.035 19.3281 122.217 19.3281C122.399 19.3281 122.59 19.3281 122.791 19.3281C122.919 19.3828 123.01 19.4193 123.064 19.4375C123.119 19.4375 123.165 19.4375 123.201 19.4375C123.329 19.474 123.42 19.4922 123.475 19.4922C123.529 19.4922 123.575 19.5104 123.611 19.5469C123.721 19.6016 123.857 19.6471 124.021 19.6836C124.113 19.7018 124.222 19.7201 124.35 19.7383C124.477 19.7565 124.587 19.7656 124.678 19.7656C124.732 19.8203 124.796 19.8568 124.869 19.875C124.942 19.875 125.015 19.8932 125.088 19.9297C125.124 19.9661 125.17 19.9935 125.225 20.0117C125.279 20.0299 125.325 20.0573 125.361 20.0938C125.452 20.0938 125.535 20.1302 125.607 20.2031C125.68 20.2578 125.744 20.3125 125.799 20.3672C125.981 20.4219 126.109 20.4674 126.182 20.5039C126.419 20.5951 126.555 20.6406 126.592 20.6406C126.628 20.6406 126.665 20.6497 126.701 20.668C126.865 20.8138 126.947 20.8958 126.947 20.9141C126.965 20.9141 126.993 20.9323 127.029 20.9688C127.23 21.0964 127.348 21.1784 127.385 21.2148C127.421 21.2331 127.476 21.2331 127.549 21.2148C127.713 21.3424 127.813 21.4062 127.85 21.4062C127.886 21.4062 127.923 21.4154 127.959 21.4336C128.014 21.4883 128.059 21.5339 128.096 21.5703C128.132 21.6068 128.169 21.6432 128.205 21.6797C128.296 21.7526 128.36 21.8164 128.396 21.8711C128.433 21.9258 128.469 21.9714 128.506 22.0078C128.633 22.0625 128.697 22.1081 128.697 22.1445C128.715 22.1628 128.743 22.1628 128.779 22.1445L128.998 22.3633C129.126 22.5638 129.199 22.6641 129.217 22.6641C129.235 22.6641 129.253 22.6823 129.271 22.7188C129.363 22.8281 129.417 22.901 129.436 22.9375C129.472 22.974 129.508 23.0104 129.545 23.0469C129.673 23.2292 129.745 23.3203 129.764 23.3203C129.8 23.3203 129.827 23.3294 129.846 23.3477C129.973 23.4753 130.046 23.5664 130.064 23.6211C130.083 23.6576 130.092 23.7031 130.092 23.7578C130.146 23.8125 130.201 23.8581 130.256 23.8945C130.311 23.9128 130.356 23.9583 130.393 24.0312C130.411 24.1042 130.429 24.1589 130.447 24.1953C130.465 24.2318 130.484 24.2773 130.502 24.332C130.593 24.4232 130.648 24.487 130.666 24.5234C130.684 24.5599 130.712 24.5872 130.748 24.6055C130.785 24.7331 130.83 24.8516 130.885 24.9609C130.958 25.0521 131.021 25.1523 131.076 25.2617C131.149 25.4987 131.204 25.6536 131.24 25.7266C131.258 25.763 131.268 25.8086 131.268 25.8633C131.286 25.918 131.304 25.9727 131.322 26.0273C131.432 26.1914 131.486 26.3099 131.486 26.3828C131.486 26.4557 131.505 26.5378 131.541 26.6289C131.596 26.793 131.632 26.9023 131.65 26.957C131.669 26.9935 131.678 27.0299 131.678 27.0664C131.732 27.3398 131.751 27.5312 131.732 27.6406C131.732 27.7318 131.742 27.832 131.76 27.9414C131.796 28.1055 131.814 28.2057 131.814 28.2422C131.833 28.2604 131.851 28.2878 131.869 28.3242C131.887 28.5065 131.896 28.5977 131.896 28.5977C131.915 28.5977 131.924 28.6159 131.924 28.6523C131.942 28.7253 131.951 28.8073 131.951 28.8984C131.969 28.9896 131.997 29.0716 132.033 29.1445C132.033 29.2357 132.024 29.3086 132.006 29.3633C132.006 29.418 132.015 29.4727 132.033 29.5273C132.033 29.6367 132.033 29.737 132.033 29.8281C132.051 29.974 132.051 30.056 132.033 30.0742C132.033 30.0924 132.033 30.1198 132.033 30.1562C132.015 30.2292 132.006 30.3021 132.006 30.375C132.024 30.4479 132.033 30.5208 132.033 30.5938C132.033 30.7214 132.024 30.8398 132.006 30.9492C131.988 31.0586 131.979 31.1771 131.979 31.3047C131.979 31.487 131.979 31.5781 131.979 31.5781C131.997 31.5781 132.006 31.5872 132.006 31.6055C131.969 31.8789 131.915 32.0977 131.842 32.2617C131.86 32.3529 131.86 32.444 131.842 32.5352C131.824 32.6081 131.805 32.6901 131.787 32.7812C131.751 32.8724 131.723 32.9544 131.705 33.0273C131.705 33.082 131.687 33.1458 131.65 33.2188C131.559 33.401 131.505 33.5286 131.486 33.6016C131.468 33.6562 131.459 33.7292 131.459 33.8203C131.368 33.9115 131.304 34.0208 131.268 34.1484C131.249 34.2578 131.186 34.349 131.076 34.4219C130.949 34.6042 130.885 34.7135 130.885 34.75C130.885 34.7865 130.876 34.8229 130.857 34.8594C130.821 34.9323 130.766 35.0143 130.693 35.1055C130.639 35.1784 130.593 35.2604 130.557 35.3516C130.465 35.4792 130.402 35.5612 130.365 35.5977C130.292 35.7253 130.229 35.8164 130.174 35.8711C130.137 35.9076 130.101 35.9622 130.064 36.0352C130.028 36.0898 129.982 36.1445 129.928 36.1992C129.891 36.2539 129.864 36.3268 129.846 36.418C129.718 36.5273 129.645 36.6003 129.627 36.6367C129.627 36.6732 129.618 36.7096 129.6 36.7461C129.508 36.8737 129.454 36.9466 129.436 36.9648C129.436 36.9831 129.417 37.0013 129.381 37.0195C129.253 37.1289 129.162 37.2109 129.107 37.2656C129.071 37.3203 129.035 37.3659 128.998 37.4023C128.816 37.5482 128.697 37.6393 128.643 37.6758C128.588 37.7122 128.542 37.7578 128.506 37.8125C128.36 37.9583 128.287 38.0312 128.287 38.0312C128.287 38.013 128.269 38.0039 128.232 38.0039C128.068 38.168 127.959 38.2773 127.904 38.332C127.868 38.3867 127.822 38.4323 127.768 38.4688C127.713 38.5052 127.649 38.5508 127.576 38.6055C127.521 38.6602 127.467 38.7057 127.412 38.7422C127.376 38.7786 127.33 38.8151 127.275 38.8516C127.221 38.888 127.175 38.9245 127.139 38.9609C126.975 39.0885 126.874 39.1615 126.838 39.1797C126.82 39.1797 126.801 39.1979 126.783 39.2344C126.656 39.2708 126.528 39.3255 126.4 39.3984C126.291 39.4714 126.173 39.526 126.045 39.5625C125.844 39.6536 125.726 39.7174 125.689 39.7539C125.653 39.7721 125.617 39.7904 125.58 39.8086C125.398 39.8633 125.298 39.8906 125.279 39.8906C125.279 39.8724 125.261 39.8724 125.225 39.8906C125.024 39.9635 124.887 40 124.814 40C124.76 39.9818 124.687 39.9909 124.596 40.0273C124.395 40.082 124.295 40.1094 124.295 40.1094C124.003 40.1641 123.794 40.2096 123.666 40.2461C123.538 40.2826 123.411 40.3099 123.283 40.3281C123.21 40.3464 123.083 40.3555 122.9 40.3555C122.809 40.3919 122.736 40.4102 122.682 40.4102C122.645 40.4284 122.609 40.4466 122.572 40.4648C122.39 40.4831 122.244 40.4831 122.135 40.4648C122.025 40.4466 121.88 40.4648 121.697 40.5195C121.624 40.4831 121.542 40.474 121.451 40.4922C121.378 40.5104 121.324 40.5013 121.287 40.4648C121.105 40.4648 120.977 40.474 120.904 40.4922C120.831 40.5104 120.768 40.5195 120.713 40.5195C120.531 40.5013 120.403 40.4831 120.33 40.4648C120.275 40.4648 120.23 40.474 120.193 40.4922C120.066 40.4375 119.984 40.401 119.947 40.3828C119.929 40.3828 119.902 40.3919 119.865 40.4102L119.564 40.3555C119.382 40.2826 119.264 40.2461 119.209 40.2461C119.154 40.2643 119.1 40.2643 119.045 40.2461C118.954 40.2279 118.872 40.2005 118.799 40.1641C118.726 40.1276 118.653 40.1276 118.58 40.1641C118.416 40.0547 118.298 39.9909 118.225 39.9727C118.17 39.9362 118.106 39.9089 118.033 39.8906C117.869 39.763 117.769 39.6901 117.732 39.6719C117.714 39.6536 117.687 39.6354 117.65 39.6172C117.45 39.5443 117.34 39.4987 117.322 39.4805C117.304 39.4622 117.277 39.4531 117.24 39.4531C117.094 39.3438 117.012 39.2982 116.994 39.3164C116.994 39.3164 116.976 39.3073 116.939 39.2891C116.757 39.125 116.666 39.043 116.666 39.043C116.684 39.0247 116.675 38.9974 116.639 38.9609C116.475 38.888 116.393 38.8516 116.393 38.8516C116.393 38.8333 116.383 38.8242 116.365 38.8242L116.064 38.5781L115.791 38.4141C115.645 38.25 115.572 38.1589 115.572 38.1406L115.326 37.9492C115.126 37.7852 114.989 37.6849 114.916 37.6484C114.861 37.5938 114.788 37.5391 114.697 37.4844C114.624 37.3568 114.579 37.2839 114.561 37.2656C114.561 37.2474 114.542 37.2292 114.506 37.2109C114.378 37.0104 114.296 36.8919 114.26 36.8555C114.223 36.8008 114.178 36.7552 114.123 36.7188C114.068 36.5547 113.968 36.4089 113.822 36.2812C113.695 36.099 113.613 35.9896 113.576 35.9531C113.54 35.8802 113.494 35.8164 113.439 35.7617C113.403 35.6888 113.367 35.6068 113.33 35.5156C113.239 35.4062 113.166 35.3242 113.111 35.2695C113.02 35.1055 112.975 35.0143 112.975 34.9961C112.938 34.9596 112.893 34.8594 112.838 34.6953C112.71 34.4583 112.637 34.3125 112.619 34.2578C112.51 34.0573 112.455 33.9388 112.455 33.9023C112.455 33.8659 112.437 33.8294 112.4 33.793C112.327 33.5924 112.282 33.474 112.264 33.4375L112.154 33.0547C112.081 32.8906 112.036 32.7448 112.018 32.6172C111.999 32.4896 111.963 32.3711 111.908 32.2617C111.89 32.1523 111.872 32.0794 111.854 32.043C111.854 31.9883 111.835 31.9245 111.799 31.8516C111.689 31.5052 111.644 31.2044 111.662 30.9492C111.662 30.8763 111.662 30.8125 111.662 30.7578C111.68 30.7031 111.689 30.6393 111.689 30.5664C111.671 30.4935 111.653 30.4206 111.635 30.3477C111.635 30.2747 111.626 30.1927 111.607 30.1016C111.626 29.9193 111.617 29.8008 111.58 29.7461C111.562 29.6914 111.562 29.6276 111.58 29.5547C111.544 29.4453 111.535 29.3724 111.553 29.3359C111.571 29.2812 111.58 29.2083 111.58 29.1172C111.58 28.9896 111.58 28.9167 111.58 28.8984C111.598 28.8802 111.607 28.8529 111.607 28.8164C111.626 28.7435 111.635 28.6706 111.635 28.5977C111.635 28.5247 111.644 28.4518 111.662 28.3789C111.68 28.2148 111.689 28.1055 111.689 28.0508C111.689 27.9961 111.699 27.9232 111.717 27.832C111.753 27.5951 111.781 27.4674 111.799 27.4492C111.835 27.2487 111.854 27.1211 111.854 27.0664C111.854 27.0117 111.863 26.957 111.881 26.9023C111.954 26.7747 111.99 26.7018 111.99 26.6836C111.99 26.6471 112.008 26.6198 112.045 26.6016C112.063 26.3828 112.09 26.2188 112.127 26.1094C112.255 25.9089 112.318 25.7995 112.318 25.7812C112.318 25.7448 112.327 25.7083 112.346 25.6719C112.364 25.6354 112.391 25.599 112.428 25.5625C112.464 25.5078 112.501 25.4531 112.537 25.3984C112.592 25.3073 112.637 25.2161 112.674 25.125C112.729 25.0156 112.792 24.9154 112.865 24.8242C112.829 24.7695 112.838 24.7148 112.893 24.6602C112.947 24.6055 112.956 24.5508 112.92 24.4961C112.993 24.4232 113.048 24.3411 113.084 24.25C113.139 24.1589 113.202 24.0859 113.275 24.0312C113.275 23.9401 113.294 23.8672 113.33 23.8125C113.385 23.7578 113.43 23.7031 113.467 23.6484C113.503 23.5755 113.549 23.5208 113.604 23.4844C113.676 23.4297 113.74 23.375 113.795 23.3203C113.923 23.1745 113.986 23.0924 113.986 23.0742C113.986 23.056 113.995 23.0378 114.014 23.0195C114.105 22.8919 114.16 22.819 114.178 22.8008C114.214 22.7826 114.242 22.7461 114.26 22.6914C114.333 22.6732 114.387 22.6367 114.424 22.582C114.479 22.5273 114.533 22.4818 114.588 22.4453C114.679 22.3724 114.734 22.3359 114.752 22.3359C114.788 22.3177 114.825 22.2904 114.861 22.2539C114.971 22.1263 115.053 22.0352 115.107 21.9805C115.144 21.944 115.18 21.9076 115.217 21.8711C115.253 21.8346 115.29 21.7982 115.326 21.7617C115.472 21.6159 115.554 21.543 115.572 21.543C115.7 21.4701 115.773 21.4245 115.791 21.4062C115.827 21.3698 115.882 21.3424 115.955 21.3242L116.174 21.1055C116.301 20.9779 116.374 20.9049 116.393 20.8867C116.411 20.8685 116.429 20.8411 116.447 20.8047L116.748 20.6133C116.876 20.4857 116.976 20.4219 117.049 20.4219C117.231 20.3125 117.34 20.2578 117.377 20.2578C117.432 20.2578 117.486 20.2396 117.541 20.2031C117.705 20.1667 117.824 20.1393 117.896 20.1211C118.006 20.0482 118.079 20.0117 118.115 20.0117C118.152 19.9935 118.188 19.9753 118.225 19.957C118.462 19.9753 118.635 19.957 118.744 19.9023C118.854 19.8477 118.954 19.8021 119.045 19.7656C119.173 19.6927 119.273 19.638 119.346 19.6016C119.419 19.5469 119.501 19.5104 119.592 19.4922C119.811 19.474 119.947 19.4557 120.002 19.4375C120.057 19.4193 120.13 19.4102 120.221 19.4102L120.631 19.3281C120.813 19.2917 120.923 19.2826 120.959 19.3008C121.014 19.319 121.059 19.3281 121.096 19.3281L121.342 19.2734ZM126.182 25.8086C126.182 25.7174 126.154 25.6445 126.1 25.5898C126.063 25.5169 126.027 25.4349 125.99 25.3438C125.826 25.1797 125.717 25.0794 125.662 25.043C125.626 25.0065 125.58 24.9701 125.525 24.9336C125.398 24.7878 125.288 24.6875 125.197 24.6328C125.088 24.5052 125.015 24.4414 124.979 24.4414C124.96 24.4414 124.951 24.4232 124.951 24.3867L124.678 24.2227C124.514 24.0951 124.331 23.9857 124.131 23.8945L123.83 23.8125C123.611 23.7214 123.484 23.6576 123.447 23.6211C123.32 23.5482 123.229 23.5117 123.174 23.5117C123.119 23.5117 123.074 23.5026 123.037 23.4844C122.837 23.4115 122.718 23.3659 122.682 23.3477C122.499 23.3294 122.39 23.3112 122.354 23.293C122.317 23.2565 122.281 23.2565 122.244 23.293H121.834C121.67 23.3112 121.542 23.3294 121.451 23.3477C121.36 23.3477 121.278 23.3659 121.205 23.4023C120.968 23.457 120.813 23.4844 120.74 23.4844C120.667 23.4844 120.585 23.5026 120.494 23.5391C120.348 23.5938 120.257 23.6302 120.221 23.6484C120.184 23.6667 120.157 23.6667 120.139 23.6484C119.975 23.6849 119.883 23.7122 119.865 23.7305C119.847 23.7305 119.829 23.7396 119.811 23.7578L119.537 23.8945C119.464 23.931 119.4 23.9674 119.346 24.0039C119.309 24.0221 119.273 24.0495 119.236 24.0859C119.018 24.25 118.89 24.3411 118.854 24.3594C118.689 24.5052 118.607 24.569 118.607 24.5508C118.425 24.806 118.288 24.9792 118.197 25.0703C118.124 25.1432 118.061 25.2253 118.006 25.3164C117.915 25.3346 117.851 25.3802 117.814 25.4531C117.778 25.526 117.723 25.5807 117.65 25.6172C117.614 25.7266 117.568 25.8177 117.514 25.8906C117.459 25.9635 117.413 26.0547 117.377 26.1641C117.286 26.3099 117.204 26.4375 117.131 26.5469C117.076 26.638 117.031 26.7292 116.994 26.8203C116.958 26.9479 116.939 27.0482 116.939 27.1211C116.848 27.2669 116.803 27.3581 116.803 27.3945C116.821 27.4128 116.83 27.431 116.83 27.4492C116.83 27.5768 116.821 27.6589 116.803 27.6953C116.803 27.7318 116.803 27.7682 116.803 27.8047C116.766 28.0052 116.739 28.1146 116.721 28.1328C116.721 28.1328 116.721 28.1419 116.721 28.1602C116.666 28.3607 116.639 28.4701 116.639 28.4883C116.657 28.5065 116.657 28.5339 116.639 28.5703C116.566 28.7891 116.529 28.9622 116.529 29.0898C116.548 29.1992 116.557 29.2995 116.557 29.3906C116.538 29.5182 116.529 29.6185 116.529 29.6914C116.548 29.7461 116.557 29.8008 116.557 29.8555C116.52 30.0924 116.502 30.2474 116.502 30.3203C116.52 30.375 116.529 30.4388 116.529 30.5117C116.529 30.5664 116.52 30.6211 116.502 30.6758C116.502 30.7305 116.511 30.7852 116.529 30.8398C116.548 30.8763 116.566 30.9219 116.584 30.9766C116.602 31.0312 116.611 31.0859 116.611 31.1406C116.63 31.3411 116.639 31.4505 116.639 31.4688C116.657 31.487 116.666 31.5143 116.666 31.5508C116.702 31.6966 116.712 31.8242 116.693 31.9336C116.693 32.0247 116.73 32.1159 116.803 32.207C116.803 32.2617 116.803 32.3346 116.803 32.4258C116.821 32.5169 116.839 32.5807 116.857 32.6172C116.93 32.7266 116.976 32.8177 116.994 32.8906L117.158 33.1914C117.176 33.2826 117.204 33.3555 117.24 33.4102C117.277 33.4648 117.304 33.5286 117.322 33.6016C117.413 33.6927 117.495 33.793 117.568 33.9023C117.641 33.9935 117.696 34.112 117.732 34.2578C117.769 34.2943 117.814 34.3307 117.869 34.3672C117.924 34.4036 117.969 34.4583 118.006 34.5312C118.206 34.7135 118.325 34.832 118.361 34.8867C118.452 34.9232 118.535 34.9779 118.607 35.0508C118.699 35.1055 118.79 35.1693 118.881 35.2422C118.936 35.2786 118.99 35.3242 119.045 35.3789C119.1 35.4154 119.145 35.4427 119.182 35.4609C119.309 35.5703 119.4 35.625 119.455 35.625C119.51 35.625 119.555 35.6341 119.592 35.6523C119.792 35.7253 119.902 35.7708 119.92 35.7891C120.12 35.862 120.221 35.8984 120.221 35.8984C120.439 35.9896 120.585 36.0443 120.658 36.0625C120.731 36.0807 120.786 36.099 120.822 36.1172C121.023 36.1536 121.141 36.1628 121.178 36.1445C121.232 36.1263 121.278 36.1172 121.314 36.1172C121.497 36.1172 121.597 36.1172 121.615 36.1172C121.633 36.099 121.661 36.0898 121.697 36.0898C121.934 36.1445 122.071 36.1719 122.107 36.1719C122.162 36.1536 122.217 36.1354 122.271 36.1172C122.417 36.0625 122.59 36.0534 122.791 36.0898C122.882 36.0534 122.964 36.026 123.037 36.0078C123.128 35.9714 123.21 35.9349 123.283 35.8984C123.374 35.8438 123.438 35.8255 123.475 35.8438C123.529 35.8438 123.575 35.8346 123.611 35.8164C123.794 35.7435 123.894 35.6979 123.912 35.6797C124.04 35.5885 124.131 35.5521 124.186 35.5703C124.258 35.5703 124.313 35.5703 124.35 35.5703C124.441 35.5521 124.505 35.5247 124.541 35.4883C124.577 35.4336 124.632 35.3971 124.705 35.3789C124.851 35.3424 124.951 35.2969 125.006 35.2422C125.225 35.151 125.343 35.0964 125.361 35.0781C125.38 35.0417 125.407 35.0234 125.443 35.0234C125.662 34.8047 125.79 34.6589 125.826 34.5859C125.954 34.4766 126.036 34.4036 126.072 34.3672C126.109 34.2031 126.154 34.0938 126.209 34.0391C126.318 34.0026 126.382 33.9661 126.4 33.9297C126.437 33.875 126.464 33.8294 126.482 33.793C126.574 33.6289 126.628 33.5378 126.646 33.5195C126.665 33.5013 126.674 33.4831 126.674 33.4648C126.71 33.319 126.719 33.237 126.701 33.2188C126.701 33.2005 126.701 33.1732 126.701 33.1367C126.811 32.9909 126.883 32.8359 126.92 32.6719C126.938 32.5807 126.956 32.4805 126.975 32.3711C127.011 32.2435 127.048 32.1615 127.084 32.125C127.157 31.9245 127.202 31.7969 127.221 31.7422C127.239 31.6693 127.257 31.5964 127.275 31.5234C127.294 31.3958 127.312 31.3138 127.33 31.2773C127.348 31.2227 127.357 31.1771 127.357 31.1406C127.339 30.9401 127.339 30.8307 127.357 30.8125C127.376 30.776 127.367 30.7396 127.33 30.7031C127.385 30.4661 127.412 30.3203 127.412 30.2656C127.394 30.1016 127.385 29.9922 127.385 29.9375C127.403 29.8646 127.394 29.8099 127.357 29.7734C127.394 29.5547 127.385 29.3359 127.33 29.1172L127.248 28.7891C127.193 28.625 127.166 28.5156 127.166 28.4609C127.148 28.2604 127.111 28.1237 127.057 28.0508C126.984 27.9049 126.947 27.8047 126.947 27.75C126.965 27.6953 126.975 27.6497 126.975 27.6133C126.956 27.5586 126.929 27.5039 126.893 27.4492C126.874 27.3945 126.856 27.3398 126.838 27.2852C126.82 27.0846 126.801 26.9661 126.783 26.9297C126.692 26.7474 126.646 26.638 126.646 26.6016C126.555 26.401 126.51 26.2734 126.51 26.2188C126.51 26.1458 126.492 26.0638 126.455 25.9727C126.364 25.9727 126.3 25.9453 126.264 25.8906C126.245 25.8359 126.218 25.8086 126.182 25.8086Z" fill="black"/>
</g>
</g>
</svg>
