<svg width="360" height="640" viewBox="0 0 360 640" fill="none" xmlns="http://www.w3.org/2000/svg">
<g id="Frame">
<g id="Group" style="mix-blend-mode:darken">
<mask id="mask0" mask-type="alpha" maskUnits="userSpaceOnUse" x="0" y="0" width="360" height="640">
<g id="mask0" style="mix-blend-mode:darken">
<g id="Vector" style="mix-blend-mode:darken">
<path d="M360 0H0V640H360V0Z" fill="white"/>
</g>
</g>
</mask>
<g mask="url(#mask0)">
<g id="Group_2" style="mix-blend-mode:darken">
<g id="Group_3" style="mix-blend-mode:lighten" opacity="0.86" filter="url(#filter0_d)">
<g id="Vector_2" style="mix-blend-mode:lighten" opacity="0.86">
<path d="M93.229 508.418H135.584V594.858H93.229V508.418Z" fill="#A52626"/>
</g>
<g id="Vector_3" style="mix-blend-mode:lighten" opacity="0.86">
<path d="M93.229 458.899H135.584V503.628H93.229V458.899Z" fill="#A52626"/>
</g>
<g id="Vector_4" style="mix-blend-mode:lighten" opacity="0.86">
<path d="M93.229 594.439H135.584V637H93.229V594.439Z" fill="#A52626"/>
</g>
<g id="Vector_5" style="mix-blend-mode:lighten" opacity="0.86">
<path d="M232.416 508.418H274.771V594.858H232.416V508.418Z" fill="#A52626"/>
</g>
<g id="Vector_6" style="mix-blend-mode:lighten" opacity="0.86">
<path d="M232.416 458.899H274.771V503.628H232.416V458.899Z" fill="#8C3737"/>
</g>
<g id="Vector_7" style="mix-blend-mode:lighten" opacity="0.86">
<path d="M232.416 594.439H274.771V637H232.416V594.439Z" fill="#8C3737"/>
</g>
<g id="Vector_8" style="mix-blend-mode:lighten" opacity="0.86">
<path d="M184.395 473.557H175.778V495.361H79.167V509.344H184.395V473.557Z" fill="#841616"/>
</g>
<g id="Vector_9" style="mix-blend-mode:lighten" opacity="0.86">
<path d="M191.692 495.361V473.557H184.086V509.344H288.834V495.361H191.692Z" fill="#852C2C"/>
</g>
<g id="Vector_10" style="mix-blend-mode:lighten" opacity="0.86">
<path d="M79.748 443.064H184.601V480.393H79.748V443.064Z" fill="#D26161"/>
</g>
<g id="Vector_11" style="mix-blend-mode:lighten" opacity="0.86">
<path d="M184 443.064H288.252V480.393H184V443.064Z" fill="#CD4A4A" fill-opacity="0.96"/>
</g>
<g id="Vector_12" style="mix-blend-mode:lighten" opacity="0.86">
<path d="M184.924 413.9H60.9229L54.8149 407.725V419.309C54.8149 438.786 72.8489 454.632 95.0149 454.632H184.924V413.9Z" fill="#841616"/>
</g>
<g id="Vector_13" style="mix-blend-mode:lighten" opacity="0.86">
<path d="M307.225 413.9H184V454.632H272.985C295.151 454.632 313.185 438.786 313.185 419.309V407.725L307.225 413.9Z" fill="#852C2C"/>
</g>
<g id="Vector_14" style="mix-blend-mode:lighten" opacity="0.86">
<path d="M185.259 410.277H88.522C78.741 410.277 70.015 405.414 65.721 398H48.603C53.751 413.561 69.969 424.328 88.522 424.328H185.259V410.277Z" fill="#A52626"/>
</g>
<g id="Vector_15" style="mix-blend-mode:lighten" opacity="0.86">
<path d="M302.279 398C297.985 405.414 289.259 410.277 279.478 410.277H184V424.328H279.478C298.031 424.328 314.249 413.561 319.397 398H302.279Z" fill="#A52626"/>
</g>
<g id="Vector_16" style="mix-blend-mode:lighten" opacity="0.86">
<path fill-rule="evenodd" clip-rule="evenodd" d="M246.288 576.49C245.776 572.04 244.646 567.401 242.557 562.902C242.557 562.902 246.807 564.754 250.271 574.52C250.366 574.485 250.461 574.45 250.556 574.416C250.556 574.416 250.478 574.511 250.332 574.693C251.123 576.949 251.871 579.621 252.516 582.782C252.623 582.483 252.723 582.193 252.816 581.91C252.816 581.91 252.808 582.696 252.76 584.029C253.601 588.506 254.237 593.906 254.515 600.414C260.264 590.159 267.574 575.694 267.937 567.857C267.937 567.857 268.87 578.7 258.778 607.625C261.281 602.156 265.731 595.213 272.864 592.797C272.864 592.797 264.616 603.028 263.608 611.492C265.432 611.905 267.251 612.335 269.067 612.782C273.928 606.824 281.12 596.326 281.37 586.083C281.37 586.083 285.44 595.019 278.018 615.13C278.237 615.191 278.455 615.252 278.674 615.313C281.601 609.818 285.809 602.639 288.128 602.04C288.128 602.04 285.769 608.969 283.764 616.793C284.359 616.972 284.954 617.152 285.548 617.335C290.52 608.639 300.009 593.712 306.939 592.953C306.939 592.953 296.644 608.158 293.494 619.896C295.603 620.608 297.704 621.344 299.797 622.104C305.106 618.212 311.576 612.629 312.502 607.975C312.502 607.975 315.641 615.206 312.15 626.897C312.717 627.132 313.282 627.368 313.847 627.605C317.562 622.985 322.87 614.127 319.726 603.909C319.726 603.909 326.806 611.306 323.063 623.389C328.113 614.568 336.094 602.776 344.113 599.653C344.113 599.653 327.884 616.654 325.842 632.971C326.441 633.255 327.038 633.54 327.633 633.828C331.585 631.302 339.913 625.143 337.649 619.314C337.649 619.314 342.972 624.961 336.697 638.393L336.982 638.543C339.365 636.933 349.188 629.255 347.579 613.066C347.579 613.066 351.841 622.812 347.706 635.368C351.234 628.319 356.635 618.786 361.666 614.937C361.666 614.937 352.975 635.674 353.559 645.434C353.571 645.626 353.557 645.9 353.543 646.181C353.515 646.721 353.486 647.287 353.639 647.337C353.639 647.337 354.242 646.627 355.029 645.917C358.162 643.104 366.134 634.86 368.171 622.293C368.171 622.293 370.793 630.445 363.202 643.777C368.417 636.099 379.001 622.509 389.67 620.771C389.67 620.771 369.355 634.559 367.596 650.049C367.578 650.208 367.535 650.45 367.49 650.705V650.706C367.395 651.237 367.291 651.825 367.379 651.854C367.379 651.854 368.883 651.485 370.861 651.122C376.14 650.153 385.699 646.804 384.94 635.17C384.94 635.17 388.866 643.883 382.448 654.932C382.448 654.932 381.801 656.252 381.749 656.339C381.753 656.333 381.763 656.322 381.779 656.304C382.558 655.421 396.816 639.245 394.826 619.395C394.826 619.395 403.713 627.576 393.495 658.562L388.662 673.262C393.202 677.08 397.622 681.039 401.915 685.131C428.89 710.853 450.288 741.389 464.887 774.997C479.486 808.604 487 844.624 487 881H196.5H-94C-94 844.624 -86.486 808.604 -71.887 774.997C-57.3625 741.561 -36.1081 711.165 -9.32704 685.526L-87.7896 718.966L-95.3698 701.18C-95.3698 701.18 -108.012 660.496 -95.4087 647.482C-95.4087 647.482 -101.151 676.931 -87.134 695.336C-87.0146 695.493 -86.8483 695.747 -86.6732 696.014H-86.6731C-86.317 696.558 -85.9246 697.157 -85.8153 697.111C-85.8153 697.111 -86.1093 696.082 -86.4391 695.04C-88.4073 688.782 -94.8171 666.323 -90.2446 658.809C-90.2446 658.809 -86.5554 685.88 -77.8784 691.391C-75.3032 693.104 -76.8862 690.968 -76.8862 690.968C-79.4181 684.707 -87.9823 661.27 -81.1009 646.506C-81.1009 646.506 -79.0242 674.585 -65.4711 686.104C-65.255 686.261 -65.0374 686.458 -64.807 686.667C-64.4428 686.997 -64.0465 687.356 -63.5733 687.631C-63.5733 687.631 -63.8755 686.619 -64.1251 685.53C-65.4497 679.74 -69.9228 660.758 -73.7492 651.779C-73.7492 651.779 -59.2936 669.955 -55.5673 681.883L-55.4423 681.829C-57.0936 673.65 -64.5106 638.63 -72.6903 627.639C-72.6903 627.639 -63.8454 636.989 -49.8976 671.191C-52.0783 664.287 -53.8721 654.584 -50.2134 647.097C-50.2134 647.097 -48.3206 668.955 -39.7293 675.133C-39.542 675.267 -39.3174 675.476 -39.0823 675.694C-38.5554 676.184 -37.9761 676.722 -37.647 676.582C-37.647 676.582 -37.7973 675.517 -37.8262 674.322C-37.9719 667.975 -39.1737 646.948 -48.7251 634.62C-48.7251 634.62 -37.3376 640.737 -27.3653 669.863L-26.607 671.877C-26.6059 671.876 -26.6381 671.766 -26.6982 671.56L-26.6994 671.556L-26.6998 671.554H-26.6999C-27.5305 668.705 -33.6059 647.864 -31.579 644.416C-31.579 644.416 -26.5199 656.59 -20.8662 667.096C-20.7591 667.297 -20.593 667.635 -20.4274 667.971C-20.1677 668.499 -19.9095 669.025 -19.8827 669.013C-19.8827 669.013 -20.2183 668.018 -20.5002 666.94C-22.4567 659.459 -29.8362 629.335 -23.9673 622.156C-23.9673 622.156 -19.1969 651.626 -10.6475 662.738C-10.5202 662.904 -10.3508 663.164 -10.1746 663.435C-9.82213 663.978 -9.44274 664.561 -9.31964 664.509C-9.31964 664.509 -9.29295 663.339 -9.00725 662.039C-7.71605 656.113 -4.49004 639.053 -8.43894 631.965C-8.43894 631.965 1.25196 637.39 7.45596 654.612C7.45596 654.612 8.85796 633.384 -5.94804 622.883C-5.94804 622.883 5.02696 624.517 11.216 638.457C8.47496 626.575 5.75396 609.785 9.56196 600.991C9.56196 600.991 9.88896 631.037 21.925 647.302C21.925 647.302 27.276 628.79 19.346 623.947C19.346 623.947 27.858 625.286 33.104 642.916C33.104 642.916 37.471 626.537 22.276 610.854C22.276 610.854 32.851 616.737 39.094 631.403C36.515 622.281 33.509 609.482 34.48 602.215C34.48 602.215 43.364 627.807 51.13 636.412C51.282 636.58 51.477 636.844 51.677 637.115C52.061 637.636 52.463 638.18 52.617 638.114C52.617 638.114 52.547 637.013 52.62 635.776C52.913 630.866 52.844 617.367 44.984 604.235C44.984 604.235 53.106 609.85 57.282 627.779C55.524 616.833 53.451 596.461 60.329 586.999C60.329 586.999 55.088 614.717 65.353 630.35C65.459 630.51 65.607 630.765 65.763 631.034L65.764 631.035V631.036C66.09 631.596 66.452 632.218 66.54 632.18C66.54 632.18 67.417 630.73 68.662 628.939C69.609 627.575 70.678 625.775 71.507 623.662L70.928 610.203C70.928 610.203 70.96 609.725 71.038 608.87C70.201 607.201 69.044 605.506 67.498 603.809C67.498 603.809 69.116 604.686 71.255 606.763C71.551 604.121 72.083 600.193 72.981 595.817C70.553 590.992 67.385 586.189 63.251 581.929C63.251 581.929 67.667 582.281 74.408 589.784C76.909 580.553 81.11 571.025 88.055 567.948C88.055 567.948 79.691 580.562 78.444 594.821C79.373 596.107 80.332 597.521 81.316 599.075C82.399 591.284 84.581 581.445 88.782 578.374C88.782 578.374 83.237 600.752 88.78 607.631C90.4 609.733 89.75 607.589 89.75 607.589C89.62 601.921 89.9 580.973 100.41 571.376C100.41 571.376 93.186 594.074 100.914 607.11C101.045 607.296 101.166 607.515 101.293 607.747C101.494 608.114 101.713 608.512 102.023 608.868C102.023 608.868 102.092 607.983 102.23 607.053C102.965 602.11 105.266 585.865 104.914 577.68C104.914 577.68 111.274 596.217 110.599 606.693L110.721 606.688C111.945 599.769 116.892 570.045 113.519 559C113.519 559 117.977 568.949 118.788 599.945C119.159 593.874 120.749 585.715 126.222 580.897C126.222 580.897 120.83 598.648 126.088 606.027C126.203 606.188 126.325 606.418 126.453 606.658C126.74 607.198 127.056 607.791 127.378 607.777C127.378 607.777 127.591 606.896 127.949 605.947C129.855 600.911 135.562 584.017 131.461 571.519C131.461 571.519 139.092 579.67 138.18 605.507L138.174 607.313C138.176 607.313 138.184 607.215 138.199 607.032C138.411 604.548 139.956 586.371 142.764 584.252C142.764 584.252 143.133 595.313 144.535 605.236C144.561 605.425 144.592 605.739 144.624 606.053C144.674 606.544 144.724 607.033 144.75 607.032C144.75 607.032 144.785 606.151 144.893 605.22C145.636 598.761 149.05 572.9 156.285 568.973C156.285 568.973 150.883 593.555 154.529 604.804C154.583 604.971 154.643 605.226 154.704 605.491C154.828 606.021 154.96 606.591 155.081 606.586C155.081 606.586 155.477 605.674 156.133 604.735C159.114 600.452 167.281 587.977 166.222 581.243C166.222 581.243 172.646 588.352 172.365 603.719C172.365 603.719 180.328 587.431 171.221 574.828C171.221 574.828 179.937 579.332 180.692 592.113C182.181 581.962 185.256 567.956 191.272 562.154C191.272 562.154 181.946 585.886 186.88 602.211C186.88 602.211 197.3 589.217 192.172 583.082C192.172 583.082 198.909 586.632 197.692 602.038C197.692 602.038 206.602 590.434 198.823 573.641C198.823 573.641 205.844 581.37 206.413 594.738C207.157 586.806 208.716 575.855 211.856 570.424C211.856 570.424 211.538 580.785 212.495 590.301C214.639 586.747 217.397 582.609 220.585 578.797C220.468 577.585 220.293 576.349 220.052 575.092C220.052 575.092 220.703 575.969 221.434 577.803C226.034 572.52 231.457 568.045 237.192 566.924C237.611 566.6 238.039 566.303 238.478 566.033C238.478 566.033 238.305 566.297 238.003 566.788C238.494 566.72 238.986 566.677 239.48 566.661C239.48 566.661 238.515 567.308 236.985 568.51C235.629 570.879 233.575 574.76 231.796 579.341C233.371 577.941 234.971 576.939 236.537 576.558C236.537 576.558 231.942 582.948 228.76 589.931C228.157 593.432 228 596.988 228.592 600.345C230.575 595.549 234.192 588.132 239.502 582.269C239.391 581.969 239.27 581.666 239.14 581.359C239.14 581.359 239.357 581.592 239.699 582.054C241.666 579.913 243.861 577.99 246.288 576.49ZM246.571 579.966C245.249 582.006 243.772 584.5 242.424 587.264C243.611 590.54 244.463 595.143 243.572 600.976C243.572 600.976 243.555 601.167 243.534 601.416C243.733 601.052 243.935 600.681 244.14 600.303C245.195 596.635 247.005 588.891 246.571 579.966ZM225.8 586.473C227.349 581.767 229.382 576.852 231.978 572.846C229.042 575.638 225.724 579.273 222.968 583.535C223.271 585.408 223.463 587.608 223.441 590.148C224.185 588.919 224.975 587.679 225.8 586.473ZM220.475 587.913C219.831 593.373 218.286 597.818 217.114 600.567C217.268 596.045 218.57 591.785 220.475 587.913Z" fill="#942727"/>
</g>
</g>
</g>
</g>
</g>
</g>
<defs>
<filter id="filter0_d" x="-108" y="375" width="616" height="511" filterUnits="userSpaceOnUse" color-interpolation-filters="sRGB">
<feFlood flood-opacity="0" result="BackgroundImageFix"/>
<feColorMatrix in="SourceAlpha" type="matrix" values="0 0 0 0 0 0 0 0 0 0 0 0 0 0 0 0 0 0 127 0"/>
<feOffset dx="7" dy="-9"/>
<feGaussianBlur stdDeviation="7"/>
<feColorMatrix type="matrix" values="0 0 0 0 0 0 0 0 0 0 0 0 0 0 0 0 0 0 0.25 0"/>
<feBlend mode="normal" in2="BackgroundImageFix" result="effect1_dropShadow"/>
<feBlend mode="normal" in="SourceGraphic" in2="effect1_dropShadow" result="shape"/>
</filter>
</defs>
</svg>
