<svg width="42" height="40" viewBox="0 0 42 40" fill="none" xmlns="http://www.w3.org/2000/svg">
<g id="SearchIcon">
<g id="Group 11">
<path id="Ellipse 19" d="M41.5 20C41.5 30.7468 32.3451 39.5 21 39.5C9.65489 39.5 0.5 30.7468 0.5 20C0.5 9.25316 9.65489 0.5 21 0.5C32.3451 0.5 41.5 9.25316 41.5 20Z" stroke="#F0E5E5"/>
<ellipse id="Ellipse 16" rx="10.8349" ry="10.8094" transform="matrix(0.749687 -0.661793 0.677218 0.735782 17.5993 16.4476)" fill="#B24545"/>
<rect id="Rectangle 8" width="5.7379" height="8.95225" transform="matrix(0.749687 -0.661793 0.677218 0.735782 22.778 25.5192)" fill="#B24545"/>
<ellipse id="Ellipse 17" rx="2.84232" ry="1.71427" transform="matrix(0.749687 -0.661793 0.677218 0.735782 31.058 30.2857)" fill="#B24545"/>
<ellipse id="Ellipse 18" cx="17.7798" cy="16.4717" rx="5.77982" ry="5.4717" fill="#FAEDED"/>
<path id="Ellipse 20" d="M20.4526 18.9266C19.8256 19.5024 18.9982 19.8575 18.1151 19.9297C17.2319 20.0019 16.3492 19.7867 15.6214 19.3217C14.8935 18.8566 14.3668 18.1714 14.1334 17.3857C13.8999 16.6001 13.9746 15.7641 14.3444 15.0239L14.5206 15.0982C14.1698 15.8004 14.0989 16.5935 14.3204 17.3389C14.5419 18.0842 15.0415 18.7343 15.7321 19.1755C16.4226 19.6167 17.26 19.8209 18.0979 19.7523C18.9357 19.6838 19.7207 19.347 20.3155 18.8006L20.4526 18.9266Z" fill="#B24545"/>
<path id="Ellipse 21" d="M18.3861 13.045C18.9717 13.1324 19.5267 13.3451 20.0061 13.6661C20.4856 13.9871 20.876 14.4072 21.1459 14.8925L21.0668 14.9296C20.8033 14.4557 20.422 14.0454 19.9538 13.732C19.4856 13.4186 18.9437 13.2108 18.3718 13.1255L18.3861 13.045Z" fill="#B24545"/>
</g>
</g>
</svg>
