<svg width="10" height="10" viewBox="0 0 10 10" fill="none" xmlns="http://www.w3.org/2000/svg">
<path fill-rule="evenodd" clip-rule="evenodd" d="M4.8125 9.80592C7.47037 9.80592 9.625 7.76469 9.625 5.24671C9.625 2.72873 7.47037 0.6875 4.8125 0.6875C2.15463 0.6875 0 2.72873 0 5.24671C0 7.76469 2.15463 9.80592 4.8125 9.80592ZM4.84462 5.53392C5.05038 5.53392 5.21718 5.39706 5.21718 5.22824C5.21718 5.05941 5.05038 4.92255 4.84462 4.92255C4.63887 4.92255 4.47207 5.05941 4.47207 5.22824C4.47207 5.39706 4.63887 5.53392 4.84462 5.53392ZM4.88343 2.09032L4.38669 3.04134L4.88343 4.54428L5.34913 3.04134L4.88343 2.09032ZM2.86387 7.33355L1.368 7.93491L2.20194 6.76029L4.34631 5.61971L2.86387 7.33355Z" fill="#B24545"/>
</svg>
